<?xml version="1.0" encoding="utf-8"?>
<!-- Generator: Adobe Illustrator 16.0.3, SVG Export Plug-In . SVG Version: 6.00 Build 0)  -->
<!DOCTYPE svg PUBLIC "-//W3C//DTD SVG 1.1//EN" "http://www.w3.org/Graphics/SVG/1.1/DTD/svg11.dtd">
<svg version="1.1" id="Layer_1" xmlns="http://www.w3.org/2000/svg" xmlns:xlink="http://www.w3.org/1999/xlink" x="0px" y="0px"
	 width="300px" height="300px" viewBox="0 0 300 300" enable-background="new 0 0 300 300" xml:space="preserve">
<g>
	<g>
		<g>
			<path fill="#161616" d="M165.247,161.365c-2.095-3.624-4.188-7.25-6.281-10.874c-0.856-1.481-0.746-1.144-2.121-0.349
				c-5.06,2.922-10.119,5.844-15.18,8.767C123.38,169.47,105.096,180.03,86.81,190.59c-12.702,7.335-25.401,14.672-38.104,22.008
				c-0.096,0.054-0.598,0.251-0.633,0.364c-0.057,0.179,0.594,1.028,0.682,1.181c0.6,1.039,1.202,2.08,1.801,3.119
				c1.266,2.19,2.532,4.383,3.798,6.573c0.804,1.392,0.65,1.199,2.049,0.391c2.222-1.283,4.444-2.564,6.667-3.849
				c0.948-0.546,1.895-1.092,2.841-1.641c0.774-0.445,1.341-0.392,0.859-1.239c-5.193-9.112-9.134-18.933-11.636-29.118
				c-9.851-40.097,3.546-83.644,34.25-111.246c5.866-5.274,12.4-9.994,19.15-13.899c9.196-5.294,19.018-9.498,29.338-12.033
				c4.991-1.227,10.072-2.07,15.189-2.567c2.523-0.245,5.056-0.407,7.59-0.493c0.82-0.028,4.595,0.371,4.595-0.443
				c0-4.396,0-8.792,0-13.188c0-0.8-2.474-0.366-3.122-0.366c-2.653,0-5.306,0-7.961,0c-0.227,0-2.837-0.074-2.837,0.058
				c0,0.376,0,0.752,0,1.128c0,2.041,0,4.083,0,6.124c0,7.993,0,15.985,0,23.979c0,21.646,0,43.292,0,64.938c0,7.95,0,15.9,0,23.85
				c0,2.009,0,4.019,0,6.028c0,0.357,0,0.714,0,1.071c0,0.095,2.896,0.043,3.121,0.043
				C158.048,161.365,161.647,161.365,165.247,161.365c-2.322-4.018-4.642-8.036-6.963-12.054c2.093,3.625,4.187,7.25,6.28,10.875
				c0.76,1.313,0.72,1.179,2.262,1.179c2.566,0,5.131,0,7.697,0c0.271,0,4.643,0.001,4.643,0c0-0.238,0-0.475,0-0.713
				c0-1.679,0-3.36,0-5.04c0-17.504,0-35.007,0-52.51c0-20.879,0-41.758,0-62.637c0-5.925,0-11.85,0-17.775
				c0-0.134,0.012-2.466-0.01-2.466c-4.25,0-8.5,0-12.75,0c-19.425,0-38.484,3.354-56.359,11.107
				c-18.243,7.913-34.867,19.483-48.39,34.077C33.886,95.375,20.3,136.98,24.963,177.568c1.835,15.962,6.438,31.571,13.523,45.99
				c3.447,7.014,7.549,13.712,11.454,20.479c9.444-5.454,18.887-10.911,28.331-16.365c18.788-10.85,37.576-21.7,56.362-32.551
				c13.813-7.978,27.623-15.954,41.436-23.931c0.892-0.516,1.785-1.032,2.677-1.547c0.139-0.08,0.278-0.16,0.417-0.24
				c0.317-0.182,0.003-3.617,0.003-4.02c0-0.304,0.047-4.018-0.043-4.018c-1.323,0-2.648,0-3.97,0
				C171.849,161.365,168.549,161.365,165.247,161.365z"/>
			<path fill="#161616" d="M165.247,160.817c-2.322,4.018-4.643,8.035-6.964,12.052c11.948,6.903,23.895,13.808,35.842,20.71
				c16.859,9.743,33.719,19.484,50.579,29.226c1.785,1.031,3.571,2.063,5.356,3.095c0.04,0.023,6.318-10.887,6.986-12.041
				c-3.625-2.093-7.25-4.186-10.875-6.28c-0.192-0.11-0.948-0.721-1.181-0.681c-1.311,2.269-2.715,4.483-4.212,6.633
				c-2.806,4.034-5.934,7.845-9.348,11.379c-13.831,14.313-32.271,23.823-51.925,26.914c-20.97,3.298-42.583-0.887-60.894-11.583
				c-8.768-5.12-16.747-11.504-23.318-19.265c-3.166-3.737-6-7.746-8.542-11.93c-0.548-0.902-0.733-2.455-1.82-1.828
				c-0.887,0.512-1.774,1.024-2.662,1.536c-2.949,1.701-5.896,3.403-8.845,5.104c2.321,4.018,4.641,8.035,6.962,12.053
				c11.91-6.88,23.82-13.759,35.731-20.639c16.862-9.74,33.727-19.482,50.589-29.223c1.828-1.055,3.656-2.112,5.484-3.167
				C172.229,172.859,165.914,161.971,165.247,160.817c-2.322,4.018-4.643,8.035-6.964,12.052c1.161-2.008,2.321-4.018,3.482-6.026
				c0.776-1.345,1.553-2.688,2.329-4.033C164.344,162.38,165.247,161.332,165.247,160.817c0-0.459-0.805-1.392-1.025-1.774
				c-0.821-1.418-1.638-2.835-2.458-4.252c-1.16-2.009-2.32-4.018-3.48-6.027c-11.035,6.375-22.071,12.75-33.107,19.124
				c-18.306,10.575-36.613,21.148-54.919,31.723c-4.94,2.855-9.883,5.711-14.825,8.565c-0.327,0.188-0.654,0.377-0.981,0.566
				c-0.086,0.051,1.405,2.528,1.52,2.725c2.548,4.416,5.021,8.888,7.714,13.218c22.203,35.708,63.09,57.321,105.095,56.051
				c40.361-1.221,78.214-23.269,99.092-57.839c2.418-4,4.698-8.087,7.036-12.136c0.121-0.21,1.27-1.923,1.068-2.04
				c-0.354-0.205-0.711-0.41-1.065-0.615c-4.832-2.792-9.663-5.583-14.495-8.375c-18.137-10.48-36.272-20.959-54.41-31.439
				c-13.227-7.642-26.451-15.283-39.675-22.926c-0.362-0.208-0.723-0.416-1.082-0.624c-0.235-0.135-2.369,1.367-2.621,1.513
				c-1.369,0.791-2.737,1.582-4.106,2.372c-0.466,0.271,0.221,0.932,0.444,1.318c0.822,1.422,1.641,2.843,2.462,4.264
				C162.702,156.411,163.973,158.613,165.247,160.817z"/>
			<path fill="#161616" d="M165.278,160.579c4.186,0,8.372,0,12.556,0c0.5,0,1.363,0.313,1.363-0.297c0-0.709,0-1.418,0-2.128
				c0-7.823,0-15.647,0-23.471c0-18.84,0-37.679,0-56.52c0-0.709,0-1.418,0-2.127c0-0.611-0.862-0.297-1.363-0.297
				c-2.53,0-5.062,0-7.591,0c-1.128,0-2.257,0-3.385,0c-0.224,0-1.414-0.166-1.58,0c-0.144,0.143,0,1.171,0,1.363
				c0,1.2,0,2.4,0,3.601c0,2.531,0,5.062,0,7.592c0,0.226-0.152,1.179,0,1.363c2.681,0.001,5.362,0.149,8.024,0.449
				c4.967,0.558,9.874,1.644,14.609,3.239c17.574,5.918,32.403,18.834,40.734,35.396c9.258,18.414,10.199,41.09,1.771,59.981
				c-0.762,1.707-1.591,3.382-2.476,5.027c-0.25,0.462-1.586,2.09-1.047,2.401c1.267,0.733,2.531,1.464,3.796,2.197
				c2.678,1.549,5.355,3.097,8.033,4.646c2.093-3.625,4.185-7.25,6.278-10.875c0.252-0.433,0.954-1.023,0.426-1.329
				c-0.614-0.354-1.229-0.708-1.843-1.062c-6.772-3.912-13.544-7.823-20.318-11.734c-16.309-9.418-32.619-18.836-48.926-28.255
				c-0.7-0.404-1.4-0.809-2.1-1.213C169.919,152.542,167.598,156.56,165.278,160.579c4.64,0,9.279,0,13.918,0
				c-2.319,0-4.64,0-6.959,0c-1.552,0-3.104,0-4.657,0C167.083,160.579,165.725,160.321,165.278,160.579
				c-0.397,0.229-0.805,1.392-1.024,1.775c-0.82,1.417-1.638,2.834-2.458,4.252c-1.161,2.009-2.321,4.018-3.482,6.027
				c12.444,7.186,24.886,14.372,37.331,21.558c15.475,8.937,30.951,17.875,46.426,26.812c0.514,0.297,1.029,0.594,1.545,0.892
				c0.445,0.256,0.791-0.929,0.979-1.257c2.164-3.742,4.348-7.473,6.493-11.225c10.607-18.577,14.802-39.975,12.148-61.207
				c-4.805-38.417-32.679-71.281-69.793-82.31c-9.22-2.74-18.806-4.08-28.421-4.08c-4.391,0-8.782,0-13.173,0
				c-0.945,0-0.492,1.697-0.492,2.488c0,2.757,0,5.516,0,8.274c0,20.469,0,40.939,0,61.408c0,8.832,0,17.664,0,26.496
				c0,2.299,0,4.598,0,6.896c0,0.4,0,0.799,0,1.199c0,0.475,3.607,2.119,4.057,2.379c0.274,0.159,2.845,1.773,2.949,1.593
				c0.705-1.221,1.41-2.442,2.116-3.664C162.078,166.117,163.679,163.348,165.278,160.579z"/>
		</g>
		<g>
			<path fill="#666666" d="M165.791,161.37c-10.612,6.13-21.227,12.259-31.839,18.39c-18.667,10.781-37.334,21.561-56.002,32.342
				c-7.454,4.304-14.908,8.609-22.362,12.915c-15.372-26.623-20.624-58.355-14.602-88.506c5.943-29.758,22.603-56.881,46.565-75.521
				c10.577-8.227,22.499-14.862,35.075-19.486c13.828-5.083,28.458-7.358,43.166-7.358c0,12.252,0,24.506,0,36.759
				c0,21.549,0,43.1,0,64.649C165.791,144.159,165.791,152.764,165.791,161.37z"/>
			<path fill="#161616" d="M165.791,161.37c-0.22-0.38-2.049-3.642-2.125-3.597c-0.31,0.179-0.619,0.357-0.93,0.536
				c-1.74,1.006-3.481,2.011-5.222,3.016c-6.886,3.978-13.773,7.955-20.659,11.933c-18.752,10.83-37.503,21.659-56.253,32.488
				c-6.924,4-13.847,7.997-20.771,11.996c-1.769,1.022-3.537,2.043-5.306,3.065c-0.324,0.187-0.65,0.376-0.977,0.563
				c-0.107,0.062,1.798,3.229,2.021,3.617c0.036,0.06,2.065-1.155,2.25-1.262c0.424-0.243,0.847-0.488,1.271-0.733
				c0.208-0.121-1.238-2.46-1.434-2.821c-2.479-4.553-4.675-9.262-6.563-14.09c-3.67-9.379-6.176-19.208-7.44-29.2
				c-2.52-19.92-0.059-40.377,7.05-59.152c13.564-35.822,44.035-64.063,80.844-74.768c9.86-2.868,20.078-4.311,30.333-4.589
				c1.303-0.035,2.605-0.052,3.907-0.052c0.108-0.132,0-0.825,0-0.986c0-0.499,0.34-2.851,0-3.189
				c-0.281-0.283-4.177,0.154-4.177,0.043c0,3.929,0,7.859,0,11.788c0,20.022,0,40.043,0,60.065c0,17.226,0,34.453,0,51.68
				c0,1.074,0,2.149,0,3.224c0,0.064-0.046,0.372,0,0.425C162.005,161.805,165.119,161.37,165.791,161.37
				c-0.696-1.207-1.392-2.412-2.089-3.618c0.481,0.836,0.965,1.671,1.447,2.507c0.587,1.013,0.485,1.111,1.628,1.111
				c0.43,0,3.189,0.261,3.189-0.166c0-1.33,0-2.66,0-3.99c0-6.906,0-13.812,0-20.72c0-21.464,0-42.93,0-64.395
				c0-13.893,0-27.785,0-41.678c0-0.598-0.003-0.455-0.716-0.455c-3.528,0-7.057-0.001-10.582,0.166
				c-10.325,0.491-20.586,2.138-30.491,5.115c-18.5,5.561-35.88,15.452-50.252,28.346c-28.917,25.945-45.047,64.377-43.483,103.189
				c0.811,20.115,6.339,39.926,15.992,57.587c0.126,0.23,3.598,6.368,3.627,6.352c0.216-0.126,0.432-0.25,0.647-0.374
				c1.525-0.881,3.051-1.762,4.576-2.643c15.574-8.996,31.15-17.993,46.728-26.989c17.398-10.049,34.799-20.099,52.197-30.148
				c3.312-1.912,6.625-3.826,9.937-5.738c0.59-0.341,1.18-0.683,1.771-1.023c0.136-0.079,0.181-2.31,0.048-2.437
				c-0.214-0.206-1.631,0-1.922,0C167.293,161.37,166.542,161.37,165.791,161.37z"/>
			<path fill="#EEEEEE" d="M165.791,160.82c11.949,6.903,23.894,13.806,35.842,20.71c16.859,9.74,33.718,19.482,50.577,29.222
				c1.792,1.037,3.585,2.072,5.376,3.107c-15.322,26.537-41.885,45.392-71.986,51.129c-31.104,5.928-63.585-2.736-88.037-22.773
				c-6.552-5.37-12.348-11.602-17.28-18.489c-0.57-0.796-6.268-9.33-6.046-9.459c0.328-0.19,0.655-0.382,0.984-0.573
				c5.301-3.096,10.604-6.191,15.905-9.286c18.294-10.68,36.591-21.361,54.886-32.042
				C152.605,168.519,159.198,164.669,165.791,160.82z"/>
			<path fill="#161616" d="M165.791,160.82c-0.696,1.206-1.392,2.411-2.089,3.616c11.948,6.903,23.894,13.807,35.843,20.71
				c16.858,9.74,33.717,19.482,50.576,29.222c1.542,0.891,3.082,1.78,4.622,2.671c0.248,0.142,0.497,0.287,0.743,0.428
				c0.024,0.013,1.898-3.257,2.102-3.609c-0.834-0.483-1.669-0.964-2.504-1.446c-0.361-0.209-0.721-0.417-1.082-0.626
				c-0.033-0.02-1.6,2.616-1.769,2.887c-2.439,3.922-5.141,7.681-8.087,11.237c-5.718,6.907-12.354,13.042-19.688,18.201
				c-16.103,11.331-35.44,17.815-55.113,18.518c-20.139,0.718-40.002-4.728-57.173-15.209c-8.264-5.044-15.872-11.126-22.313-18.375
				c-3.229-3.635-6.158-7.529-8.807-11.604c-0.366-0.563-3.166-5.273-3.325-5.183c-1.03,0.594-2.062,1.189-3.093,1.782
				c-0.138,0.079-0.277,0.158-0.415,0.238c0.703,1.203,1.404,2.405,2.106,3.607c11.876-6.934,23.755-13.868,35.631-20.801
				c16.816-9.817,33.634-19.636,50.45-29.454c1.56-0.91,3.119-1.82,4.68-2.731c0.263-0.154,0.526-0.307,0.789-0.461
				C167.914,164.416,166.002,161.18,165.791,160.82c-0.696,1.206-1.392,2.411-2.089,3.616c0.481-0.835,0.965-1.671,1.447-2.505
				c0.587-1.015,0.724-0.974,0.146-1.962c-0.236-0.404-1.341-2.911-1.78-2.653c-1.35,0.787-2.697,1.575-4.047,2.362
				c-6.76,3.947-13.521,7.894-20.281,11.84c-18.301,10.684-36.604,21.368-54.905,32.053c-4.991,2.914-9.982,5.827-14.974,8.741
				c-0.26,0.151-0.52,0.304-0.78,0.456c-0.033,0.018,3.487,5.99,3.633,6.228c5.031,8.259,11.072,15.885,18.175,22.46
				c29.703,27.495,73.321,36.739,111.56,23.495c17.618-6.104,33.575-16.69,45.999-30.595c5.507-6.163,10.144-12.926,14.271-20.075
				c0.269-0.465,1.518-1.723,0.868-2.1c-0.508-0.292-1.015-0.586-1.522-0.879c-14.729-8.509-29.46-17.02-44.192-25.532
				c-15.923-9.2-31.847-18.4-47.771-27.601c-1.036-0.599-2.075-1.198-3.111-1.797c-1.108-0.64-1.6,0.173-2.75,0.845
				C164.388,158.417,165.09,159.619,165.791,160.82z"/>
			<path fill="#AAAAAA" d="M165.834,160.583c0-15.493,0-30.985,0-46.477c0-12.789,0-25.577,0-38.365
				c30.51,0,59.25,16.917,74.104,43.562c6.389,11.459,10.03,24.367,10.606,37.473c0.718,16.292-3.114,32.102-11.279,46.216
				c-13.408-7.744-26.817-15.489-40.226-23.232C187.97,173.367,176.903,166.975,165.834,160.583z"/>
			<path fill="#161616" d="M165.834,160.583c0.462,0,4.176,0.071,4.176-0.065c0-0.524,0-1.047,0-1.571c0-2.827,0-5.653,0-8.481
				c0-9.979,0-19.958,0-29.937c0-10.426,0-20.852,0-31.277c0-3.386,0-6.771,0-10.157c0-0.887,0-1.774,0-2.66
				c0-0.743,0.124-0.695-0.715-0.695c-1.111,0-2.221,0-3.332,0c-0.283,0-0.129,2.25-0.129,2.579c0,0.489,0,0.979,0,1.468
				c0,0.25,2.159,0.156,2.514,0.167c2.685,0.082,5.365,0.296,8.027,0.644c9.689,1.266,19.13,4.315,27.727,8.96
				c16.05,8.675,28.914,22.81,36.017,39.617c5.447,12.886,7.34,27.068,5.833,40.958c-0.787,7.256-2.616,14.363-5.456,21.088
				c-0.375,0.887-4.651,9.791-4.819,9.695c1.196,0.692,2.391,1.384,3.587,2.075c0.697-1.206,1.393-2.412,2.089-3.618
				c-13.408-7.744-26.816-15.488-40.226-23.232c-11.069-6.392-22.136-12.785-33.205-19.177
				C167.227,158.171,166.53,159.376,165.834,160.583c1.393,0,2.784,0,4.176,0c-0.641,0-1.281,0-1.924,0
				C167.59,160.583,166.271,160.33,165.834,160.583c-0.372,0.215-0.751,1.3-0.961,1.665c-0.376,0.65-0.752,1.301-1.128,1.951
				c13.133,7.586,26.268,15.171,39.401,22.757c8.861,5.117,17.72,10.233,26.581,15.35c2.798,1.617,5.596,3.233,8.396,4.85
				c0.714,0.413,1.43,0.827,2.147,1.24c0.698,0.404,0.544,0.258,1.013-0.553c4.353-7.522,8.161-15.215,10.476-23.63
				c2.776-10.092,3.603-20.758,2.729-31.177c-1.604-19.12-9.506-37.436-22.283-51.744c-12.362-13.845-28.992-23.637-47.125-27.638
				c-7.7-1.698-15.438-2.087-23.293-2.087c-0.282,0-0.129,3.207-0.129,3.548c0,19.104,0,38.209,0,57.313c0,8.146,0,16.293,0,24.439
				c0,1.885,0,3.771,0,5.658c0,0.764,0.458,0.735,1.186,1.155c1.095,0.632,0.921,0.486,1.543-0.591
				C164.87,162.252,165.353,161.417,165.834,160.583z"/>
		</g>
	</g>
	<path fill="#FFFFFF" stroke="#161616" stroke-width="8.4775" stroke-miterlimit="10" d="M165.573,12.975"/>
	<polyline fill="#FFFFFF" stroke="#161616" stroke-width="8.4775" stroke-miterlimit="10" points="165.573,9.583 131.663,117.899 
		172.218,171.552 159.92,250.242 202.882,166.128 167.273,115.281 207.394,9.584 	"/>
</g>
</svg>
