<?xml version="1.0" encoding="UTF-8" standalone="no"?>
<svg
   xmlns:dc="http://purl.org/dc/elements/1.1/"
   xmlns:cc="http://creativecommons.org/ns#"
   xmlns:rdf="http://www.w3.org/1999/02/22-rdf-syntax-ns#"
   xmlns:svg="http://www.w3.org/2000/svg"
   xmlns="http://www.w3.org/2000/svg"
   xmlns:sodipodi="http://sodipodi.sourceforge.net/DTD/sodipodi-0.dtd"
   xmlns:inkscape="http://www.inkscape.org/namespaces/inkscape"
   version="1.0"
   width="160"
   height="90"
   id="svg3037"
   inkscape:version="0.48.3.1 r9886"
   sodipodi:docname="google_analytics.svg">
  <metadata
     id="metadata3049">
    <rdf:RDF>
      <cc:Work
         rdf:about="">
        <dc:format>image/svg+xml</dc:format>
        <dc:type
           rdf:resource="http://purl.org/dc/dcmitype/StillImage" />
        <dc:title />
      </cc:Work>
    </rdf:RDF>
  </metadata>
  <defs
     id="defs3047" />
  <sodipodi:namedview
     pagecolor="#ffffff"
     bordercolor="#666666"
     borderopacity="1"
     objecttolerance="10"
     gridtolerance="10"
     guidetolerance="10"
     inkscape:pageopacity="1"
     inkscape:pageshadow="2"
     inkscape:window-width="958"
     inkscape:window-height="538"
     id="namedview3045"
     showgrid="true"
     showguides="false"
     inkscape:snap-page="false"
     inkscape:snap-to-guides="false"
     inkscape:zoom="2"
     inkscape:cx="91.847953"
     inkscape:cy="10.379815"
     inkscape:window-x="1366"
     inkscape:window-y="540"
     inkscape:window-maximized="0"
     inkscape:current-layer="svg3037"
     fit-margin-top="0"
     fit-margin-left="0"
     fit-margin-right="0"
     fit-margin-bottom="0"
     inkscape:guide-bbox="true"
     width="150px"
     borderlayer="false"
     inkscape:snap-grids="false">
    <inkscape:grid
       type="xygrid"
       id="grid3119"
       empspacing="5"
       visible="true"
       enabled="true"
       snapvisiblegridlinesonly="true"
       originx="0px"
       originy="0px" />
    <sodipodi:guide
       position="0,-0.6"
       orientation="0,800"
       id="guide3123" />
    <sodipodi:guide
       position="800,-0.6"
       orientation="-283,0"
       id="guide3125" />
    <sodipodi:guide
       position="800,282.4"
       orientation="0,-800"
       id="guide3127" />
    <sodipodi:guide
       position="9.9524678,94.708968"
       orientation="283,0"
       id="guide3129" />
    <sodipodi:guide
       orientation="1,0"
       position="310.45279,66.135754"
       id="guide4081" />
    <sodipodi:guide
       orientation="0,1"
       position="187.06016,34.960273"
       id="guide4083" />
    <sodipodi:guide
       orientation="0,1"
       position="39.167777,64.851564"
       id="guide4085" />
  </sodipodi:namedview>
  <path
     id="G"
     style="fill:#0860a8"
     d="m 19.400456,48.82821 -3.219478,0.76305 c -1.303326,0.212944 -2.477184,0.399274 -3.71405,0.399274 -6.2136792,0 -8.576928,-4.702551 -8.576928,-8.375864 0,-4.494051 3.3541252,-8.659802 9.097399,-8.659802 1.217014,0 2.382235,0.185439 3.443894,0.486221 1.683103,0.486232 2.477182,1.08781 2.969163,1.434721 l -1.864361,1.828679 -0.79408,0.184556 0.569666,-0.926317 c -0.768186,-0.763051 -2.166457,-2.174708 -4.821445,-2.174708 -3.5578267,0 -6.2369872,2.77805 -6.2369872,6.827574 0,4.352974 3.0623888,8.443298 7.9684282,8.443298 1.441427,0 2.183715,-0.292791 2.856963,-0.576718 l 0,-3.726549 -3.39211,0.186332 1.795316,-0.993755 4.773117,0 -0.586929,0.576731 c -0.155368,0.141958 -0.172631,0.186321 -0.224415,0.37265 -0.01724,0.20407 -0.04314,0.878407 -0.04314,1.109098 l 0,2.821529 0,0 z"
     inkscape:connector-curvature="0" />
  <path
     id="o1"
     style="fill:#fa0029"
     d="m 29.792561,47.6925 c 0.569665,-0.789673 0.716395,-1.774563 0.716395,-2.741682 0,-2.173812 -1.009863,-6.316501 -3.987666,-6.316501 -0.794078,0 -1.579528,0.320295 -2.157829,0.838466 -0.94081,0.864208 -1.104804,1.946682 -1.104804,3.011407 0,2.440015 1.173857,6.468231 4.082605,6.468231 0.932188,0 1.89889,-0.470247 2.451299,-1.259921 z m -3.003702,1.996368 c -3.823671,0 -5.860655,-3.061094 -5.860655,-5.820525 0,-3.235 2.572128,-5.999744 6.223172,-5.999744 3.521575,0 5.731188,2.838385 5.731188,5.822277 0,2.919148 -2.183722,5.997992 -6.093705,5.997992"
     inkscape:connector-curvature="0" />
  <path
     id="o2"
     style="fill:#ffe500"
     d="m 42.566894,47.6925 c 0.569667,-0.789673 0.716401,-1.774563 0.716401,-2.741682 0,-2.173812 -1.00986,-6.316501 -3.987668,-6.316501 -0.794075,0 -1.579525,0.320295 -2.157827,0.838466 -0.940809,0.864208 -1.104803,1.946682 -1.104803,3.011407 0,2.440015 1.173858,6.468231 4.082607,6.468231 0.932179,0 1.898887,-0.470247 2.45129,-1.259921 z m -3.003692,1.996368 c -3.815039,0 -5.860657,-3.061094 -5.860657,-5.820525 0,-3.235 2.572129,-5.999744 6.223172,-5.999744 3.530203,0 5.739819,2.838385 5.739819,5.822277 0,2.919148 -2.192356,5.997992 -6.102334,5.997992"
     inkscape:connector-curvature="0" />
  <path
     id="l"
     style="fill:#138f34"
     d="m 62.323967,49.369444 -4.24661,0 c 0.552403,-0.736437 0.647347,-0.816287 0.647347,-1.304284 l 0,-4.028233 c 0,-1.925386 0.02588,-4.663506 0.09494,-7.229515 0.02585,-1.259039 0.120839,-2.839268 0.146733,-3.97499 l -1.872994,0 1.795308,-0.889046 3.435266,0 c -0.742297,0.445497 -0.983972,0.592956 -1.078913,1.456902 -0.189897,1.900546 -0.215783,4.912849 -0.215783,8.418461 l 0,5.705179 c 0,0.958256 0.16399,1.109089 0.958071,1.180073 0.41431,0.05326 0.819981,0.07098 1.225649,0.124219 l -0.889027,0.541234 z"
     inkscape:connector-curvature="0" />
  <path
     id="g"
     style="fill:#0860a8"
     d="m 53.442345,45.350094 c 0.552407,-0.567856 0.595562,-1.357531 0.595562,-1.801165 0,-1.783426 -1.027123,-4.545513 -3.020956,-4.545513 -0.621454,0 -1.294696,0.32119 -1.683113,0.815405 -0.405673,0.51817 -0.526511,1.183621 -0.526511,1.822461 0,1.659205 0.932182,4.400877 3.003704,4.400877 0.595559,0 1.242908,-0.301666 1.631314,-0.692065 z m -0.699129,4.684802 c -0.189896,-0.01775 -0.310738,-0.01775 -0.552403,-0.01775 -0.215784,0 -1.510487,0.04432 -2.52035,0.390408 -0.526508,0.195196 -2.062884,0.789675 -2.062884,2.546477 0,1.747928 1.657211,3.007858 4.229346,3.007858 2.304554,0 3.521571,-1.135711 3.521571,-2.66182 0,-1.259933 -0.785447,-1.925385 -2.61528,-3.265175 m 1.708991,-10.957839 c 0.552399,0.469365 1.700374,1.456901 1.700374,3.336149 0,1.827789 -1.009864,2.688446 -2.011102,3.504731 -0.319355,0.319424 -0.673231,0.665463 -0.673231,1.206695 0,0.541244 0.353876,0.84292 0.621438,1.064738 l 0.863138,0.692075 c 1.061646,0.90501 2.019734,1.747929 2.019734,3.451495 0,2.324658 -2.183725,4.667065 -6.318123,4.667065 -3.478416,0 -5.161522,-1.703567 -5.161522,-3.531354 0,-0.88728 0.431562,-2.147202 1.847092,-3.007871 1.493227,-0.940504 3.504313,-1.064727 4.591867,-1.135699 -0.336628,-0.443636 -0.725037,-0.913894 -0.725037,-1.68583 0,-0.417011 0.12084,-0.665452 0.241677,-0.958254 -0.267563,0.02657 -0.526508,0.05326 -0.768186,0.05326 -2.546236,0 -3.987668,-1.951998 -3.987668,-3.877382 0,-1.135712 0.509252,-2.397417 1.53638,-3.310429 1.372382,-1.159666 3.003693,-1.357527 4.29839,-1.357527 l 4.945737,0 -1.536373,0.888162 -1.484585,0"
     inkscape:connector-curvature="0" />
  <path
     id="e"
     style="fill:#fa0029"
     d="m 69.410276,41.472702 c 0.45745,-0.177457 0.699131,-0.319416 0.699131,-0.667228 0,-0.986653 -1.078917,-2.122364 -2.382241,-2.122364 -0.958076,0 -2.762026,0.764824 -2.762026,3.428431 0,0.425887 0.05181,0.869522 0.07769,1.313167 l 4.367448,-1.952006 z m 2.261395,7.355508 c -0.267573,0.150823 -0.535139,0.319425 -0.794076,0.443636 -0.794084,0.372651 -1.614053,0.470247 -2.330458,0.470247 -0.768185,0 -1.967939,-0.05326 -3.193588,-0.967117 -1.709001,-1.233321 -2.451287,-3.353898 -2.451287,-5.208299 0,-3.822392 3.029588,-5.698078 5.498149,-5.698078 0.863131,0 1.752146,0.221806 2.477184,0.691182 1.199743,0.81364 1.510481,1.874807 1.674471,2.442661 l -5.636245,2.342407 -1.855732,0.150834 c 0.604193,3.132091 2.667077,4.959865 4.954378,4.959865 1.217015,0 2.106036,-0.443634 2.926006,-0.860656 l -1.268802,1.233318"
     inkscape:connector-curvature="0" />
  <text
     xml:space="preserve"
     style="font-size:0.63282514px;font-style:normal;font-variant:normal;font-weight:normal;font-stretch:normal;line-height:125%;letter-spacing:0px;word-spacing:0px;fill:#000000;fill-opacity:1;stroke:none;font-family:Droid Sans;-inkscape-font-specification:Droid Sans"
     x="78.591721"
     y="48.477486"
     id="text3051"
     sodipodi:linespacing="125%"
     transform="scale(0.98630073,1.0138896)"><tspan
       sodipodi:role="line"
       id="tspan3053"
       x="78.591721"
       y="48.477486"
       style="font-size:18.22536469px;font-style:normal;font-variant:normal;font-weight:300;font-stretch:normal;text-align:start;line-height:125%;writing-mode:lr-tb;text-anchor:start;fill:#808080;font-family:Open Sans;-inkscape-font-specification:Open Sans Light">Analytics</tspan></text>
</svg>
