<?xml version="1.0" encoding="UTF-8" standalone="no"?>
<svg xmlns:rdf="http://www.w3.org/1999/02/22-rdf-syntax-ns#" xmlns="http://www.w3.org/2000/svg" height="90" width="160" version="1.0" xmlns:cc="http://creativecommons.org/ns#" xmlns:dc="http://purl.org/dc/elements/1.1/">
 <defs>
  <filter id="a">
   <feColorMatrix values="0.10625 0.3577 0.03605 0 0.25 0.10625 0.3577 0.03605 0 0.25 0.10625 0.3577 0.03605 0 0.25 0 0 0 1 0"/>
  </filter>
 </defs>
 <g filter="url(#a)">
  <path fill="#0860a8" d="m19.4 48.828-3.2195 0.76305c-1.3033 0.21294-2.4772 0.39927-3.714 0.39927-6.2137 0-8.5769-4.7026-8.5769-8.3759 0-4.4941 3.3541-8.6598 9.0974-8.6598 1.217 0 2.3822 0.18544 3.4439 0.48622 1.6831 0.48623 2.4772 1.0878 2.9692 1.4347l-1.8644 1.8287-0.79408 0.18456 0.56967-0.92632c-0.76819-0.76305-2.1665-2.1747-4.8214-2.1747-3.5578 0-6.237 2.778-6.237 6.8276 0 4.353 3.0624 8.4433 7.9684 8.4433 1.4414 0 2.1837-0.29279 2.857-0.57672v-3.7265l-3.3921 0.18633 1.7953-0.99376h4.7731l-0.58693 0.57673c-0.15537 0.14196-0.17263 0.18632-0.22442 0.37265-0.01724 0.20407-0.04314 0.87841-0.04314 1.1091v2.8215z"/>
  <path fill="#fa0029" d="m29.793 47.692c0.56966-0.78967 0.7164-1.7746 0.7164-2.7417 0-2.1738-1.0099-6.3165-3.9877-6.3165-0.79408 0-1.5795 0.3203-2.1578 0.83847-0.94081 0.86421-1.1048 1.9467-1.1048 3.0114 0 2.44 1.1739 6.4682 4.0826 6.4682 0.93219 0 1.8989-0.47025 2.4513-1.2599zm-3.0037 1.9964c-3.8237 0-5.8607-3.0611-5.8607-5.8205 0-3.235 2.5721-5.9997 6.2232-5.9997 3.5216 0 5.7312 2.8384 5.7312 5.8223 0 2.9191-2.1837 5.998-6.0937 5.998"/>
  <path fill="#ffe500" d="m42.567 47.692c0.56967-0.78967 0.7164-1.7746 0.7164-2.7417 0-2.1738-1.0099-6.3165-3.9877-6.3165-0.79408 0-1.5795 0.3203-2.1578 0.83847-0.94081 0.86421-1.1048 1.9467-1.1048 3.0114 0 2.44 1.1739 6.4682 4.0826 6.4682 0.93218 0 1.8989-0.47025 2.4513-1.2599zm-3.0037 1.9964c-3.815 0-5.8607-3.0611-5.8607-5.8205 0-3.235 2.5721-5.9997 6.2232-5.9997 3.5302 0 5.7398 2.8384 5.7398 5.8223 0 2.9191-2.1924 5.998-6.1023 5.998"/>
  <path fill="#138f34" d="m62.324 49.369h-4.2466c0.5524-0.73644 0.64735-0.81629 0.64735-1.3043v-4.0282c0-1.9254 0.02588-4.6635 0.09494-7.2295 0.02585-1.259 0.12084-2.8393 0.14673-3.975h-1.873l1.7953-0.88905h3.4353c-0.7423 0.4455-0.98397 0.59296-1.0789 1.4569-0.1899 1.9005-0.21578 4.9128-0.21578 8.4185v5.7052c0 0.95826 0.16399 1.1091 0.95807 1.1801 0.41431 0.05326 0.81998 0.07098 1.2256 0.12422l-0.88903 0.54123z"/>
  <path fill="#0860a8" d="m53.442 45.35c0.55241-0.56786 0.59556-1.3575 0.59556-1.8012 0-1.7834-1.0271-4.5455-3.021-4.5455-0.62145 0-1.2947 0.32119-1.6831 0.8154-0.40567 0.51817-0.52651 1.1836-0.52651 1.8225 0 1.6592 0.93218 4.4009 3.0037 4.4009 0.59556 0 1.2429-0.30167 1.6313-0.69206zm-0.69913 4.6848c-0.1899-0.01775-0.31074-0.01775-0.5524-0.01775-0.21578 0-1.5105 0.04432-2.5204 0.39041-0.52651 0.1952-2.0629 0.78968-2.0629 2.5465 0 1.7479 1.6572 3.0079 4.2293 3.0079 2.3046 0 3.5216-1.1357 3.5216-2.6618 0-1.2599-0.78545-1.9254-2.6153-3.2652m1.709-10.958c0.5524 0.46936 1.7004 1.4569 1.7004 3.3361 0 1.8278-1.0099 2.6884-2.0111 3.5047-0.31936 0.31942-0.67323 0.66546-0.67323 1.2067s0.35388 0.84292 0.62144 1.0647l0.86314 0.69208c1.0616 0.90501 2.0197 1.7479 2.0197 3.4515 0 2.3247-2.1837 4.6671-6.3181 4.6671-3.4784 0-5.1615-1.7036-5.1615-3.5314 0-0.88728 0.43156-2.1472 1.8471-3.0079 1.4932-0.9405 3.5043-1.0647 4.5919-1.1357-0.33663-0.44364-0.72504-0.91389-0.72504-1.6858 0-0.41701 0.12084-0.66545 0.24168-0.95825-0.26756 0.02657-0.52651 0.05326-0.76819 0.05326-2.5462 0-3.9877-1.952-3.9877-3.8774 0-1.1357 0.50925-2.3974 1.5364-3.3104 1.3724-1.1597 3.0037-1.3575 4.2984-1.3575h4.9457l-1.5364 0.88816h-1.4846"/>
  <path fill="#fa0029" d="m69.41 41.473c0.45745-0.17746 0.69913-0.31942 0.69913-0.66723 0-0.98665-1.0789-2.1224-2.3822-2.1224-0.95808 0-2.762 0.76482-2.762 3.4284 0 0.42589 0.05181 0.86952 0.07769 1.3132l4.3674-1.952zm2.2614 7.3555c-0.26757 0.15082-0.53514 0.31942-0.79408 0.44364-0.79408 0.37265-1.6141 0.47025-2.3305 0.47025-0.76818 0-1.9679-0.05326-3.1936-0.96712-1.709-1.2333-2.4513-3.3539-2.4513-5.2083 0-3.8224 3.0296-5.6981 5.4981-5.6981 0.86313 0 1.7521 0.22181 2.4772 0.69118 1.1997 0.81364 1.5105 1.8748 1.6745 2.4427l-5.6362 2.3424-1.8557 0.15083c0.60419 3.1321 2.6671 4.9599 4.9544 4.9599 1.217 0 2.106-0.44363 2.926-0.86066l-1.2688 1.2333"/>
 </g>
 <text style="word-spacing:0px;letter-spacing:0px" xml:space="preserve" transform="scale(.98630 1.0139)" line-height="125%" font-size=".63283px" y="48.477486" x="78.591721" font-family="Droid Sans" fill="#000000"><tspan font-weight="300" font-size="18.225px" line-height="125%" y="48.477486" x="78.591721" font-family="Open Sans" fill="#808080">Analytics</tspan></text>
</svg>
