<?xml version="1.0" encoding="utf-8"?>
<!-- Generator: Adobe Illustrator 16.0.3, SVG Export Plug-In . SVG Version: 6.00 Build 0)  -->
<!DOCTYPE svg PUBLIC "-//W3C//DTD SVG 1.1//EN" "http://www.w3.org/Graphics/SVG/1.1/DTD/svg11.dtd">
<svg version="1.1" id="Layer_1" xmlns="http://www.w3.org/2000/svg" xmlns:xlink="http://www.w3.org/1999/xlink" x="0px" y="0px"
	 width="22.26px" height="21.619px" viewBox="0 0 22.26 21.619" enable-background="new 0 0 22.26 21.619" xml:space="preserve">
<g>
	<g>
		<g>
			<defs>
				<rect id="SVGID_1_" x="1.78" y="1.119" width="20.292" height="20.293"/>
			</defs>
			<clipPath id="SVGID_2_">
				<use xlink:href="#SVGID_1_"  overflow="visible"/>
			</clipPath>
			<g clip-path="url(#SVGID_2_)">
				<g>
					<defs>
						<rect id="SVGID_3_" x="1.78" y="1.119" width="20.292" height="20.293"/>
					</defs>
					<clipPath id="SVGID_4_">
						<use xlink:href="#SVGID_3_"  overflow="visible"/>
					</clipPath>
					<path clip-path="url(#SVGID_4_)" fill="#161616" d="M11.927,21.412c-5.603,0-10.146-4.543-10.146-10.146
						S6.324,1.119,11.927,1.119c5.604,0,10.146,4.543,10.146,10.146S17.531,21.412,11.927,21.412 M11.927,3.656
						c-4.202,0-7.61,3.407-7.61,7.609c0,4.202,3.408,7.609,7.61,7.609c4.202,0,7.61-3.407,7.61-7.609
						C19.537,7.063,16.129,3.656,11.927,3.656 M15.515,14.853c-0.496,0.494-1.298,0.494-1.793,0l-1.795-1.795l-1.794,1.795
						c-0.496,0.494-1.298,0.494-1.794,0c-0.496-0.498-0.496-1.299,0-1.795l1.794-1.792L8.339,9.471
						c-0.496-0.495-0.496-1.298,0-1.794c0.496-0.496,1.298-0.496,1.794,0l1.794,1.794l1.795-1.794c0.495-0.496,1.297-0.496,1.793,0
						c0.495,0.496,0.495,1.299,0,1.794l-1.793,1.794l1.793,1.792C16.01,13.554,16.01,14.356,15.515,14.853"/>
				</g>
			</g>
		</g>
	</g>
</g>
</svg>
