<?xml version="1.0" encoding="utf-8"?>
<!-- Generator: Adobe Illustrator 16.0.3, SVG Export Plug-In . SVG Version: 6.00 Build 0)  -->
<!DOCTYPE svg PUBLIC "-//W3C//DTD SVG 1.1//EN" "http://www.w3.org/Graphics/SVG/1.1/DTD/svg11.dtd">
<svg version="1.1" id="Layer_1" xmlns="http://www.w3.org/2000/svg" xmlns:xlink="http://www.w3.org/1999/xlink" x="0px" y="0px"
	 width="20px" height="20px" viewBox="0 0 20 20" enable-background="new 0 0 20 20" xml:space="preserve">
<g>
	<path fill="#62A88E" d="M16.5,7.167c0,0.425-0.789,1.333-1.484,1.333H5.184C4.489,8.5,3.5,7.592,3.5,7.167V6.964
		C3.5,6.54,4.489,6.5,5.184,6.5h9.832c0.695,0,1.484,0.04,1.484,0.464V7.167z"/>
	<path fill="#62A88E" d="M9.119,3.12c0.41,0.11,0.749,0.785,0.569,1.457L6.646,14.957c-0.181,0.67-0.812,1.086-1.222,0.975
		L5.229,15.88c-0.411-0.111-0.597-0.744-0.417-1.416L7.854,4.083c0.181-0.671,0.659-1.126,1.07-1.017L9.119,3.12z"/>
	<path fill="#62A88E" d="M13.868,3.12c0.411,0.11,0.75,0.785,0.57,1.457l-3.042,10.381c-0.181,0.67-0.812,1.086-1.222,0.975
		L9.979,15.88c-0.411-0.111-0.597-0.744-0.417-1.416l3.042-10.381c0.181-0.671,0.659-1.126,1.07-1.017L13.868,3.12z"/>
	<path fill="#62A88E" d="M15.5,11.167c0,0.424-0.789,1.333-1.484,1.333H4.184c-0.695,0-1.684-0.909-1.684-1.333v-0.203
		c0-0.425,0.989-0.464,1.684-0.464h9.832c0.695,0,1.484,0.039,1.484,0.464V11.167z"/>
</g>
</svg>
