<?xml version="1.0" encoding="utf-8"?>
<!-- Generator: Adobe Illustrator 16.0.3, SVG Export Plug-In . SVG Version: 6.00 Build 0)  -->
<!DOCTYPE svg PUBLIC "-//W3C//DTD SVG 1.1//EN" "http://www.w3.org/Graphics/SVG/1.1/DTD/svg11.dtd">
<svg version="1.1" id="Layer_1" xmlns="http://www.w3.org/2000/svg" xmlns:xlink="http://www.w3.org/1999/xlink" x="0px" y="0px"
	 width="480px" height="400px" viewBox="0 0 241.736 201.648" enable-background="new 0 0 241.736 201.648"
	 xml:space="preserve">
<g>
	<path fill="#FFFFFF" d="M112.892,152.656c0,4.409,3.566,7.973,7.976,7.973l0,0c4.404,0,7.973-3.563,7.973-7.973V88.864
		c0-4.408-3.568-7.976-7.973-7.976l0,0c-4.409,0-7.976,3.567-7.976,7.976V152.656z"/>
	<path fill="#FFFFFF" d="M136.815,152.656c0,4.409,3.567,7.973,7.972,7.973l0,0c4.409,0,7.976-3.563,7.976-7.973V88.864
		c0-4.408-3.566-7.976-7.976-7.976l0,0c-4.404,0-7.972,3.567-7.972,7.976V152.656z"/>
	<path fill="#FFFFFF" d="M88.97,152.656c0,4.409,3.568,7.973,7.973,7.973l0,0c4.409,0,7.976-3.563,7.976-7.973V88.864
		c0-4.408-3.566-7.976-7.976-7.976l0,0c-4.404,0-7.973,3.567-7.973,7.976V152.656z"/>
	<path fill="#FFFFFF" d="M160.736,48.991v-7.976c0-17.549-14.306-23.92-23.921-23.92h-31.897c-17.551,0-23.923,14.305-23.923,23.92
		v7.976c-23.922,0-23.922,23.922-23.922,23.922h7.974v103.664c0,4.409,3.566,7.976,7.972,7.976h95.695
		c4.409,0,7.976-3.566,7.976-7.976V72.913h7.974C184.663,48.991,160.736,48.991,160.736,48.991z M96.942,41.111
		c0.095-3.683,1.553-8.067,7.976-8.067h31.803c3.683,0.095,8.066,1.552,8.066,7.972v7.976H96.942V41.111z M160.736,168.602H80.995
		V72.913h79.741V168.602z"/>
</g>
</svg>
