<?xml version="1.0" encoding="utf-8"?>
<!-- Generator: Adobe Illustrator 16.0.3, SVG Export Plug-In . SVG Version: 6.00 Build 0)  -->
<!DOCTYPE svg PUBLIC "-//W3C//DTD SVG 1.1//EN" "http://www.w3.org/Graphics/SVG/1.1/DTD/svg11.dtd">
<svg version="1.1" id="Layer_1" xmlns="http://www.w3.org/2000/svg" xmlns:xlink="http://www.w3.org/1999/xlink" x="0px" y="0px"
	 width="240px" height="200px" viewBox="0 0 240 200" enable-background="new 0 0 240 200" xml:space="preserve">
<g>
	<path fill="#FFFFFF" d="M112.88,152.656c0,4.41,3.593,7.973,8.002,7.973l0,0c4.404,0,7.998-3.562,7.998-7.973V88.865
		c0-4.408-3.594-7.977-7.998-7.977l0,0c-4.409,0-8.002,3.567-8.002,7.977V152.656z"/>
	<path fill="#FFFFFF" d="M136.88,152.656c0,4.41,3.595,7.973,7.998,7.973l0,0c4.409,0,8.002-3.562,8.002-7.973V88.865
		c0-4.408-3.593-7.977-8.002-7.977l0,0c-4.403,0-7.998,3.567-7.998,7.977V152.656z"/>
	<path fill="#FFFFFF" d="M88.88,152.656c0,4.41,3.595,7.973,7.998,7.973l0,0c4.41,0,8.002-3.562,8.002-7.973V88.865
		c0-4.408-3.592-7.977-8.002-7.977l0,0c-4.403,0-7.998,3.567-7.998,7.977V152.656z"/>
	<path fill="#FFFFFF" d="M160.88,48.992v-7.977c0-17.55-14.447-23.535-24.062-23.535H104.92c-17.551,0-24.039,13.92-24.039,23.535
		v7.977c-24,0-23.806,23.488-23.806,23.488h7.806v104.098c0,4.408,3.734,7.902,8.141,7.902h95.694c4.409,0,8.165-3.494,8.165-7.902
		V72.48h7.784C184.664,49.48,160.88,48.992,160.88,48.992z M96.88,41.111c0-3.682,1.616-7.631,8.039-7.631h31.804
		c3.683,0,8.157,1.114,8.157,7.535v8.465h-48V41.111z M160.88,168.48h-80v-96h80V168.48z"/>
</g>
</svg>
