<?xml version="1.0" encoding="utf-8"?>
<!-- Generator: Adobe Illustrator 16.0.3, SVG Export Plug-In . SVG Version: 6.00 Build 0)  -->
<!DOCTYPE svg PUBLIC "-//W3C//DTD SVG 1.1//EN" "http://www.w3.org/Graphics/SVG/1.1/DTD/svg11.dtd">
<svg version="1.1" id="Layer_1" xmlns="http://www.w3.org/2000/svg" xmlns:xlink="http://www.w3.org/1999/xlink" x="0px" y="0px"
	 width="252.666px" height="58px" viewBox="0 0 252.666 58" enable-background="new 0 0 252.666 58" xml:space="preserve">
<g>
	<g>
		<g>
			<g>
				<g>
					<g>
						<path fill="#4BB48E" d="M25.858,31.95L6.065,43.381c-6.311-10.934-2.564-24.903,8.361-31.221
							c3.643-2.098,7.225-3.058,11.432-3.058V31.95z"/>
						<path fill="#161616" d="M5.15,46.796L3.9,44.631C-3.085,32.53,1.076,16.993,13.174,9.996
							c4.021-2.316,8.051-3.394,12.684-3.394h2.5v26.792L5.15,46.796z M23.358,11.736c-2.717,0.305-5.162,1.137-7.685,2.59
							C6.696,19.519,3.163,30.572,7.112,39.889l16.246-9.382V11.736z"/>
					</g>
				</g>
			</g>
			<g>
				<g>
					<g>
						<path fill="#FFF100" d="M25.858,31.852l16.486,9.525c-5.26,9.107-16.902,12.225-26.01,6.962
							c-3.031-1.749-5.219-3.933-6.967-6.962L25.858,31.852z"/>
						<path fill="#161616" d="M25.843,53.397c-3.763,0-7.484-1.001-10.76-2.894c-3.412-1.97-5.917-4.473-7.881-7.878l-1.249-2.164
							l19.905-11.498l19.901,11.499l-1.25,2.164C40.672,49.271,33.52,53.397,25.843,53.397z M12.929,42.207
							c1.257,1.603,2.754,2.869,4.655,3.967c2.518,1.455,5.374,2.224,8.26,2.224c5.052,0,9.808-2.327,12.92-6.202l-12.905-7.457
							L12.929,42.207z"/>
					</g>
				</g>
			</g>
			<g>
				<g>
					<g>
						<path fill="#F48029" d="M25.864,31.809V16.572c8.412,0,15.23,6.819,15.23,15.236c0,2.799-0.635,5.187-2.041,7.617
							L25.864,31.809z"/>
						<path fill="#161616" d="M39.966,42.84l-16.603-9.588v-19.18h2.5c9.776,0,17.73,7.957,17.73,17.736
							c0,3.247-0.755,6.065-2.376,8.869L39.966,42.84z M28.364,30.365l9.579,5.532c0.444-1.283,0.651-2.607,0.651-4.089
							c0-6.167-4.404-11.324-10.23-12.49V30.365z"/>
					</g>
				</g>
			</g>
		</g>
	</g>
	<g enable-background="new    ">
		<path d="M53.155,51.446V26.798c0-0.494,0.044-0.984,0.134-1.471s0.318-1.104,0.684-1.852s0.863-1.406,1.491-1.976
			c0.628-0.568,1.569-1.059,2.825-1.471c1.256-0.411,2.713-0.617,4.373-0.617c0.852,0,1.685,0.075,2.5,0.225s1.705,0.486,2.668,1.01
			c0.964,0.524,1.798,1.205,2.5,2.043c0.703,0.839,1.29,2.018,1.761,3.536c0.471,1.519,0.707,3.273,0.707,5.264
			c0,2.275-0.311,4.217-0.931,5.826c-0.621,1.608-1.476,2.802-2.568,3.58c-1.091,0.778-2.202,1.336-3.331,1.673
			c-1.128,0.336-2.374,0.505-3.734,0.505c-1.695,0-3.322-0.225-4.881-0.674v9.047H53.155z M57.353,38.381
			c1.59,0.614,3.216,0.921,4.881,0.921c0.944,0,1.75-0.09,2.417-0.27c0.667-0.18,1.324-0.523,1.968-1.032s1.136-1.306,1.474-2.391
			s0.506-2.459,0.506-4.12c0-1.78-0.168-3.258-0.506-4.434c-0.337-1.175-0.821-2.031-1.451-2.57c-0.63-0.538-1.252-0.905-1.867-1.1
			c-0.615-0.194-1.32-0.292-2.114-0.292c-3.54,0-5.309,1.145-5.309,3.435V38.381z"/>
		<path d="M78.526,37.189c-0.646-1.628-0.969-3.603-0.969-5.925c0-2.321,0.323-4.296,0.969-5.924
			c0.646-1.627,1.525-2.846,2.638-3.656c1.112-0.81,2.251-1.384,3.416-1.721c1.165-0.338,2.438-0.507,3.82-0.507
			c1.382,0,2.655,0.169,3.82,0.507c1.165,0.337,2.303,0.911,3.415,1.721c1.112,0.811,1.992,2.029,2.638,3.656
			c0.646,1.628,0.969,3.603,0.969,5.924c0,2.322-0.323,4.297-0.969,5.925c-0.646,1.627-1.526,2.846-2.638,3.656
			c-1.112,0.81-2.25,1.384-3.415,1.722c-1.165,0.337-2.438,0.506-3.82,0.506c-1.382,0-2.655-0.169-3.82-0.506
			c-1.165-0.338-2.304-0.912-3.416-1.722C80.051,40.035,79.172,38.816,78.526,37.189z M82.349,27.035
			c-0.336,1.108-0.504,2.519-0.504,4.229c0,1.712,0.168,3.122,0.504,4.23c0.336,1.109,0.84,1.932,1.513,2.468
			c0.672,0.535,1.352,0.893,2.04,1.071c0.687,0.179,1.52,0.268,2.499,0.268s1.812-0.089,2.499-0.268
			c0.687-0.179,1.367-0.536,2.039-1.071c0.672-0.536,1.177-1.358,1.513-2.468c0.336-1.108,0.504-2.519,0.504-4.23
			c0-1.711-0.168-3.121-0.504-4.229c-0.336-1.109-0.84-1.931-1.513-2.467s-1.352-0.894-2.039-1.072
			c-0.688-0.178-1.521-0.268-2.499-0.268s-1.812,0.09-2.499,0.268c-0.688,0.179-1.367,0.536-2.04,1.072S82.685,25.926,82.349,27.035
			z"/>
		<path d="M105.236,42.714V11.039h4.198v31.675H105.236z"/>
		<path d="M114.462,19.771h4.512l6.173,17.182l6.062-17.182h4.512l-9.428,25.39c-1.631,4.399-4.003,6.6-7.116,6.6h-0.022
			c-1.018,0-2.088-0.121-3.21-0.361v-3.791c0.913,0.239,1.773,0.366,2.582,0.381c1.9,0,3.435-1.765,4.602-5.294L114.462,19.771z"/>
		<path d="M141.524,40.039c-1.818-2.022-2.729-4.954-2.729-8.797c0-3.842,0.91-6.773,2.729-8.796s4.471-3.034,7.957-3.034
			c2.335,0,4.588,0.427,6.758,1.279v4c-2.08-1.005-4.184-1.508-6.309-1.508c-0.029,0-0.06,0-0.09,0
			c-2.109,0-3.764,0.544-4.961,1.632s-1.796,3.23-1.796,6.427c0,1.696,0.176,3.104,0.528,4.222c0.351,1.118,0.875,1.947,1.57,2.487
			c0.696,0.54,1.399,0.9,2.11,1.08c0.711,0.181,1.561,0.271,2.548,0.271c2.2,0,4.333-0.487,6.398-1.464v3.971
			c-2.17,0.843-4.423,1.265-6.758,1.265C145.995,43.073,143.343,42.062,141.524,40.039z"/>
		<path d="M161.739,42.714v-31.72h4.197v9.551c1.965-0.755,3.989-1.133,6.074-1.133c2.86,0,5.081,0.85,6.662,2.548
			c1.581,1.699,2.371,4.112,2.371,7.24v13.514h-4.287V29.033c0-2.25-0.477-3.75-1.429-4.5s-2.193-1.125-3.723-1.125
			c-1.874,0-3.765,0.367-5.669,1.103v18.203H161.739z"/>
		<path d="M186.186,35.463c0-2.268,0.958-4.039,2.876-5.315c1.917-1.274,4.561-1.913,7.931-1.913c1.434,0,2.822,0.09,4.167,0.27
			c-0.09-1.931-0.617-3.314-1.58-4.153c-0.963-0.838-2.543-1.257-4.737-1.257c-1.991,0-4.108,0.382-6.354,1.145v-3.592
			c2.17-0.822,4.482-1.234,6.937-1.234c3.198,0,5.668,0.827,7.409,2.48c1.742,1.654,2.613,4.029,2.613,7.128v6.622
			c0,0.494-0.049,0.984-0.146,1.471s-0.33,1.111-0.698,1.874c-0.368,0.764-0.868,1.43-1.498,1.998
			c-0.631,0.569-1.577,1.059-2.839,1.471c-1.262,0.411-2.719,0.617-4.371,0.617c-1.692,0-3.176-0.214-4.449-0.642
			s-2.232-0.927-2.877-1.497c-0.644-0.57-1.156-1.246-1.539-2.026c-0.383-0.781-0.618-1.426-0.708-1.937
			S186.186,35.958,186.186,35.463z M190.384,35.418c0,2.59,1.836,3.884,5.51,3.884c0.016,0,0.038,0,0.068,0
			c3.465,0,5.197-1.242,5.197-3.728v-3.705c-1.105-0.178-2.435-0.274-3.988-0.29c-0.611,0-1.254,0.056-1.926,0.168
			c-0.672,0.111-1.396,0.286-2.174,0.524c-0.776,0.238-1.418,0.633-1.926,1.183C190.638,34.005,190.384,34.659,190.384,35.418z"/>
		<path d="M211.306,42.714V21.702c3.831-1.526,7.557-2.29,11.18-2.29v3.861c-2.282,0.03-4.609,0.352-6.982,0.965v18.476H211.306z"/>
		<path d="M225.964,23.363v-3.592h3.996V12.97h4.198v6.802h6.106v3.592h-6.106v13.26c0,1.786,1.13,2.679,3.39,2.679
			c0.015,0,0.029,0,0.045,0c1.047,0,1.938-0.224,2.672-0.67v3.805c-1.049,0.424-2.096,0.637-3.144,0.637c-0.03,0-0.067,0-0.112,0
			c-0.554,0-1.145-0.067-1.773-0.201c-0.629-0.135-1.381-0.399-2.256-0.796c-0.875-0.396-1.598-1.082-2.166-2.061
			c-0.569-0.978-0.854-2.191-0.854-3.64V23.363H225.964z"/>
	</g>
	<g>
		<g>
			<g>
				<g>
					<g>
						<path fill="#62BF9C" d="M25.956,31.951L6.165,43.382c-6.312-10.934-2.566-24.903,8.359-31.221
							c3.643-2.098,7.227-3.058,11.432-3.058V31.951z"/>
						<path fill="#161616" d="M5.891,44.406l-0.375-0.649c-6.504-11.266-2.631-25.731,8.633-32.245
							c3.742-2.155,7.494-3.159,11.808-3.159h0.75v24.031L5.891,44.406z M25.206,9.863c-3.767,0.106-6.975,1.028-10.308,2.948
							c-10.33,5.974-14.021,19.09-8.448,29.54l18.756-10.832V9.863z"/>
					</g>
				</g>
			</g>
			<g>
				<g>
					<g>
						<path fill="#FFF100" d="M25.956,31.854l16.486,9.524c-5.26,9.106-16.902,12.224-26.01,6.962
							c-3.029-1.749-5.174-3.857-6.922-6.887L25.956,31.854z"/>
						<path fill="#161616" d="M25.941,51.647c-3.456,0-6.874-0.919-9.884-2.658c-3.178-1.835-5.398-4.044-7.197-7.161l-0.373-0.646
							l17.467-10.195l17.512,10.117l-0.375,0.649C39.566,47.856,32.995,51.647,25.941,51.647z M10.543,41.718
							c1.592,2.544,3.549,4.405,6.264,5.973c2.783,1.607,5.941,2.457,9.134,2.457c6.269,0,12.125-3.24,15.463-8.503l-15.446-8.924
							L10.543,41.718z"/>
					</g>
				</g>
			</g>
			<g>
				<g>
					<g>
						<path fill="#F48029" d="M25.964,31.811V16.573c8.412,0,15.229,6.819,15.229,15.237c0,2.797-0.635,5.186-2.041,7.616
							L25.964,31.811z"/>
						<path fill="#161616" d="M39.426,40.451l-14.212-8.208v-16.42h0.75c8.811,0,15.979,7.172,15.979,15.987
							c0,2.927-0.681,5.466-2.142,7.992L39.426,40.451z M26.714,31.378l12.15,7.017c1.089-2.09,1.579-4.15,1.579-6.584
							c0-7.737-6.092-14.077-13.729-14.468V31.378z"/>
					</g>
				</g>
			</g>
		</g>
	</g>
</g>
</svg>
