<?xml version="1.0" encoding="utf-8"?>
<!-- Generator: Adobe Illustrator 16.0.3, SVG Export Plug-In . SVG Version: 6.00 Build 0)  -->
<!DOCTYPE svg PUBLIC "-//W3C//DTD SVG 1.1//EN" "http://www.w3.org/Graphics/SVG/1.1/DTD/svg11.dtd">
<svg version="1.1" id="Layer_1" xmlns="http://www.w3.org/2000/svg" xmlns:xlink="http://www.w3.org/1999/xlink" x="0px" y="0px"
	 width="160px" height="90px" viewBox="0 0 160 90" enable-background="new 0 0 160 90" xml:space="preserve">
<g>
	<g transform="translate(0.738281, 121.593)">
		<path fill="#8C8C8C" d="M2.847-44.673h4.994v-19.723l7.731,17.193c0.913,2.081,2.162,2.817,4.61,2.817
			c2.449,0,3.65-0.736,4.562-2.817l7.732-17.193v19.723h4.994v-19.689c0-1.922-0.77-2.85-2.354-3.33
			c-3.794-1.185-6.339-0.161-7.492,2.402L20.04-48.323L12.692-65.29c-1.104-2.563-3.697-3.587-7.491-2.402
			c-1.585,0.48-2.354,1.408-2.354,3.33V-44.673z"/>
	</g>
	<g transform="translate(100.444, 142.416)">
		<path fill="#8C8C8C" d="M-58.081-81.548h4.993v10.865c-0.047,0.59,0.189,1.976,2.926,2.019c1.396,0.022,10.772,0,10.859,0v-12.937
			h5.005c0.023,0-0.005,17.643-0.004,17.717c0.027,4.352-5.4,5.297-7.9,5.369h-15.771v-3.359c0.027,0,15.759,0.004,15.799,0
			c3.213-0.34,2.834-1.938,2.834-2.475v-1.311h-10.616c-4.938-0.046-8.083-2.201-8.122-4.682
			C-58.082-70.57-57.972-81.44-58.081-81.548z"/>
	</g>
	<g transform="translate(171.496, 124.557)">
		<path fill="#8C8C8C" d="M-101.5-47.637h14.358c1.682,0,3.313-0.352,4.61-0.961c2.161-0.992,3.217-2.337,3.217-4.098v-3.65
			c0-1.44-1.2-2.785-3.553-3.682c-1.249-0.48-2.785-0.736-4.274-0.736h-6.052c-2.016,0-2.977-0.607-3.217-1.953
			c-0.048-0.16-0.048-0.287-0.048-0.448v-2.272c0-0.128,0-0.257,0.048-0.416c0.24-1.025,0.769-1.313,2.545-1.473
			c0.145,0,0.337-0.033,0.48-0.033h14.263v-3.33h-14.022c-2.017,0-3.073,0.129-4.034,0.418c-2.977,0.928-4.273,2.4-4.273,4.962
			v2.913c0,2.241,2.545,4.162,6.818,4.61c0.481,0.032,0.961,0.063,1.44,0.063h5.187c0.193,0,0.385,0,0.529,0.033
			c1.584,0.127,2.258,0.415,2.737,0.992c0.288,0.287,0.384,0.576,0.384,0.896v2.913c0,0.353-0.239,0.801-0.72,1.185
			c-0.433,0.385-1.152,0.641-2.113,0.705c-0.192,0-0.336,0.031-0.527,0.031H-101.5V-47.637z"/>
	</g>
	<g transform="translate(308.656, 124.557)">
		<path fill="#8C8C8C" d="M-185.318-53.432c0,3.426,2.545,5.347,7.684,5.73c0.48,0.031,0.961,0.064,1.441,0.064h13.015v-3.33h-13.11
			c-2.931,0-4.035-0.736-4.035-2.497v-17.226h-4.994V-53.432z"/>
	</g>
	<g transform="translate(236.74, 124.666)">
		<path fill="#8C8C8C" d="M-141.37-53.367v-11.87c0-3.015,2.118-4.845,6.304-5.422c0.433-0.063,0.915-0.096,1.348-0.096h9.48
			c0.48,0,0.915,0.032,1.396,0.096c4.187,0.577,6.304,2.407,6.304,5.422v11.87c0,2.447-0.899,3.756-2.972,4.609l4.92,4.441h-5.799
			l-3.98-3.592l-4.008,0.253h-5.341c-0.915,0-1.876-0.128-2.936-0.417C-139.83-48.939-141.37-50.607-141.37-53.367z M-135.98-53.655
			c0,0.161,0.048,0.321,0.096,0.513c0.289,1.381,1.589,2.15,3.562,2.15h4.537l-4.168-3.764h5.8l3.635,3.283
			c0.669-0.357,1.11-0.904,1.265-1.604c0.048-0.161,0.048-0.321,0.048-0.481v-11.39c0-0.128,0-0.289-0.048-0.449
			c-0.289-1.283-1.589-2.021-3.513-2.021h-7.556c-2.214,0-3.657,0.962-3.657,2.47V-53.655z"/>
	</g>
	<g transform="translate(241.59, -4.64258)">
		<path fill="#8C8C8C" d="M-91.718,52.989c-3.07-0.084-5.415,0.201-7.42,1.047c-0.57,0.24-1.479,0.247-1.571,0.961
			c0.312,0.328,0.361,0.818,0.61,1.221c0.479,0.775,1.287,1.814,2.008,2.358c0.788,0.595,1.601,1.23,2.445,1.746
			c1.502,0.915,3.18,1.439,4.626,2.356c0.853,0.541,1.7,1.223,2.531,1.833c0.411,0.302,0.688,0.771,1.223,0.96
			c0-0.027,0-0.059,0-0.087c-0.281-0.357-0.354-0.849-0.611-1.223c-0.378-0.378-0.756-0.756-1.135-1.135
			c-1.109-1.472-2.519-2.766-4.016-3.841c-1.194-0.856-3.866-2.015-4.364-3.404c-0.03-0.029-0.058-0.059-0.088-0.088
			c0.847-0.096,1.838-0.401,2.619-0.61c1.312-0.352,2.485-0.261,3.841-0.61c0.611-0.176,1.222-0.351,1.833-0.525
			c0-0.115,0-0.232,0-0.348c-0.685-0.704-1.173-1.634-1.92-2.271c-1.955-1.665-4.089-3.327-6.285-4.715
			c-1.219-0.768-2.725-1.268-4.017-1.92c-0.434-0.219-1.197-0.333-1.484-0.699c-0.678-0.865-1.048-1.96-1.57-2.968
			c-1.096-2.11-2.172-4.415-3.143-6.635c-0.662-1.515-1.095-3.007-1.921-4.365c-3.964-6.517-8.23-10.451-14.84-14.317
			c-1.407-0.822-3.1-1.146-4.889-1.571c-0.96-0.058-1.922-0.117-2.881-0.175c-0.586-0.245-1.196-0.962-1.746-1.31
			c-2.189-1.383-7.807-4.392-9.428-0.436c-1.024,2.497,1.53,4.933,2.444,6.198c0.641,0.888,1.462,1.883,1.92,2.881
			c0.302,0.656,0.354,1.313,0.611,2.008c0.635,1.709,1.187,3.569,2.009,5.149c0.414,0.8,0.871,1.643,1.396,2.357
			c0.321,0.438,0.872,0.632,0.959,1.31c-0.539,0.754-0.57,1.926-0.873,2.881c-1.364,4.302-0.849,9.648,1.136,12.833
			c0.608,0.978,2.044,3.073,4.016,2.269c1.725-0.701,1.34-2.879,1.833-4.8c0.111-0.436,0.043-0.755,0.262-1.047
			c0,0.029,0,0.058,0,0.088c0.524,1.046,1.047,2.094,1.571,3.142c1.163,1.874,3.228,3.831,4.977,5.151
			c0.906,0.686,1.62,1.869,2.793,2.27c0-0.029,0-0.059,0-0.088c-0.029,0-0.059,0-0.088,0c-0.227-0.354-0.582-0.5-0.872-0.785
			c-0.684-0.67-1.443-1.503-2.009-2.27c-1.59-2.16-2.995-4.524-4.276-6.984c-0.612-1.174-1.144-2.471-1.66-3.667
			c-0.198-0.461-0.195-1.158-0.61-1.396c-0.564,0.876-1.396,1.584-1.833,2.619c-0.698,1.654-0.788,3.67-1.047,5.762
			c-0.153,0.056-0.085,0.017-0.176,0.087c-1.216-0.293-1.643-1.544-2.094-2.618c-1.144-2.716-1.355-7.089-0.35-10.214
			c0.26-0.809,1.437-3.355,0.96-4.104c-0.228-0.745-0.978-1.176-1.396-1.746c-0.52-0.704-1.038-1.631-1.397-2.444
			c-0.936-2.118-1.372-4.494-2.356-6.634c-0.471-1.023-1.268-2.059-1.92-2.968c-0.725-1.008-1.535-1.75-2.096-2.968
			c-0.2-0.433-0.471-1.127-0.175-1.572c0.094-0.3,0.228-0.426,0.523-0.524c0.507-0.39,1.917,0.13,2.444,0.35
			c1.4,0.581,2.568,1.135,3.755,1.921c0.568,0.377,1.144,1.107,1.833,1.309c0.262,0,0.523,0,0.785,0
			c1.229,0.283,2.605,0.087,3.754,0.436c2.029,0.617,3.848,1.576,5.499,2.619c5.031,3.177,9.146,7.7,11.96,13.095
			c0.453,0.869,0.649,1.698,1.048,2.619c0.804,1.857,1.817,3.77,2.618,5.587c0.799,1.812,1.577,3.642,2.707,5.15
			c0.594,0.793,2.886,1.218,3.928,1.659c0.73,0.309,1.927,0.63,2.619,1.047c1.321,0.798,2.602,1.746,3.841,2.62
			C-93.717,51.242-91.814,52.199-91.718,52.989z"/>
	</g>
	<g transform="translate(272.504, 24.8027)">
		<path fill="#8C8C8C" d="M-161.654-9.717c-0.641-0.012-1.093,0.069-1.571,0.174c0,0.029,0,0.058,0,0.087c0.029,0,0.059,0,0.087,0
			c0.306,0.627,0.845,1.031,1.223,1.572c0.291,0.611,0.581,1.222,0.873,1.833c0.028-0.028,0.059-0.058,0.087-0.086
			c0.541-0.381,0.788-0.991,0.786-1.921c-0.217-0.228-0.249-0.514-0.437-0.786C-160.856-9.207-161.339-9.413-161.654-9.717z"/>
	</g>
	<g transform="translate(371.609, 165.56)">
		<path fill="#8C8C8C" d="M-223.786-92.063c0,2.198,1.736,3.68,3.68,3.68s3.681-1.481,3.681-3.68c0-2.199-1.737-3.682-3.681-3.682
			S-223.786-94.263-223.786-92.063z M-217.25-92.063c0,1.668-1.275,2.914-2.856,2.914c-1.6,0-2.856-1.246-2.856-2.914
			c0-1.669,1.257-2.916,2.856-2.916C-218.526-94.979-217.25-93.732-217.25-92.063z M-219.114-89.964h0.824l-1.207-1.845
			c0.647-0.069,1.138-0.383,1.138-1.148c0-0.854-0.539-1.208-1.58-1.208h-1.64v4.201h0.707v-1.816h0.658L-219.114-89.964z
			 M-220.872-92.368v-1.208h0.814c0.423,0,0.934,0.079,0.934,0.57c0,0.589-0.462,0.638-0.992,0.638H-220.872z"/>
	</g>
</g>
</svg>
