<?xml version="1.0" encoding="utf-8"?>
<!-- Generator: Adobe Illustrator 16.0.3, SVG Export Plug-In . SVG Version: 6.00 Build 0)  -->
<!DOCTYPE svg PUBLIC "-//W3C//DTD SVG 1.1//EN" "http://www.w3.org/Graphics/SVG/1.1/DTD/svg11.dtd">
<svg version="1.1" id="Layer_1" xmlns="http://www.w3.org/2000/svg" xmlns:xlink="http://www.w3.org/1999/xlink" x="0px" y="0px"
	 width="160px" height="90px" viewBox="0 0 160 90" enable-background="new 0 0 160 90" xml:space="preserve">
<path fill="#231F20" d="M23.746,58.791c2.192-0.469,3.868-1.146,4.021-7.434"/>
<path fill="#231F20" d="M27.767,51.357c0.208-1.736,0.146-1.99,1.438-1.709l0.328,0.029c0.995,0.045,2.294-0.16,3.058-0.516
	c1.645-0.764,2.62-2.037,0.999-1.702c-3.699,0.763-3.953-0.489-3.953-0.489c3.905-5.795,5.539-13.151,4.129-14.951
	c-3.844-4.911-10.497-2.589-10.608-2.529l-0.035,0.006c-0.731-0.151-1.549-0.242-2.468-0.257c-1.673-0.027-2.944,0.439-3.907,1.17
	c0,0-11.869-4.89-11.317,6.149c0.118,2.349,3.366,17.771,7.241,13.112c1.416-1.702,2.785-3.144,2.785-3.144
	c0.68,0.452,1.493,0.683,2.347,0.601l0.066-0.057c-0.021,0.211-0.012,0.418,0.026,0.662c-0.998,1.115-0.705,1.312-2.7,1.723
	c-2.02,0.416-0.833,1.157-0.059,1.351c0.938,0.234,3.111,0.567,4.579-1.487l-0.058,0.235c0.391,0.312,0.364,2.25,0.42,3.636
	c0.056,1.385,0.148,2.678,0.431,3.438c0.283,0.764,0.615,2.725,3.238,2.162"/>
<path fill="none" stroke="#231F20" stroke-width="2.7499" d="M23.746,58.791c2.192-0.469,3.868-1.146,4.021-7.434"/>
<path fill="none" stroke="#231F20" stroke-width="2.7499" d="M27.767,51.357c0.208-1.736,0.146-1.99,1.438-1.709l0.328,0.029
	c0.995,0.045,2.294-0.16,3.058-0.516c1.645-0.764,2.62-2.037,0.999-1.702c-3.699,0.763-3.953-0.489-3.953-0.489
	c3.905-5.795,5.539-13.151,4.129-14.951c-3.844-4.911-10.497-2.589-10.608-2.529l-0.035,0.006c-0.731-0.151-1.549-0.242-2.468-0.257
	c-1.673-0.027-2.944,0.439-3.907,1.17c0,0-11.869-4.89-11.317,6.149c0.118,2.349,3.366,17.771,7.241,13.112
	c1.416-1.702,2.785-3.144,2.785-3.144c0.68,0.452,1.493,0.683,2.347,0.601l0.066-0.057c-0.021,0.211-0.012,0.418,0.026,0.662
	c-0.998,1.115-0.705,1.312-2.7,1.723c-2.02,0.416-0.833,1.157-0.059,1.351c0.938,0.234,3.111,0.567,4.579-1.487l-0.058,0.235
	c0.391,0.312,0.364,2.25,0.42,3.636c0.056,1.385,0.148,2.678,0.431,3.438c0.283,0.764,0.615,2.725,3.238,2.162"/>
<path fill="#336791" d="M23.746,58.791c2.192-0.469,3.328-1.686,3.486-3.717c0.112-1.443,0.366-1.229,0.382-2.521l0.203-0.61
	c0.235-1.958,0.038-2.589,1.388-2.295l0.328,0.029c0.995,0.045,2.294-0.16,3.059-0.516c1.644-0.764,2.619-2.037,0.998-1.702
	c-3.699,0.763-3.953-0.489-3.953-0.489c3.905-5.795,5.539-13.151,4.129-14.952c-3.843-4.911-10.497-2.589-10.608-2.528l-0.035,0.006
	c-0.731-0.151-1.549-0.242-2.468-0.257c-1.673-0.027-2.943,0.439-3.907,1.169c0,0-11.869-4.89-11.317,6.15
	c0.118,2.349,3.366,17.771,7.241,13.112c1.417-1.702,2.785-3.144,2.785-3.144c0.679,0.452,1.494,0.683,2.346,0.601l0.066-0.057
	c-0.021,0.211-0.011,0.418,0.027,0.662c-0.999,1.115-0.705,1.312-2.701,1.723c-2.02,0.416-0.833,1.157-0.059,1.351
	c0.939,0.234,3.111,0.567,4.579-1.487l-0.059,0.235c0.392,0.312,0.666,2.037,0.62,3.601c-0.046,1.562-0.077,2.636,0.231,3.474
	C20.816,57.469,21.123,59.354,23.746,58.791"/>
<path fill="none" stroke="#FFFFFF" stroke-width="0.9166" stroke-linecap="round" stroke-linejoin="round" d="M23.999,58.843
	c2.192-0.47,2.989-1.379,3.335-3.387c0.255-1.476,0.747-5.577,0.81-6.418"/>
<path fill="none" stroke="#FFFFFF" stroke-width="0.9166" stroke-linecap="round" stroke-linejoin="round" d="M19.874,48.581
	c-0.102,3.642,0.025,7.309,0.382,8.199c0.356,0.892,1.119,2.625,3.743,2.062"/>
<path fill="none" stroke="#FFFFFF" stroke-width="0.9166" stroke-linecap="round" stroke-linejoin="round" d="M16.729,30.328
	c0,0-11.877-4.854-11.326,6.185c0.118,2.349,3.367,17.771,7.242,13.113c1.416-1.704,2.696-3.04,2.696-3.04"/>
<path fill="none" stroke="#FFFFFF" stroke-width="0.9166" stroke-linecap="round" stroke-linejoin="round" d="M23.145,29.442
	c-0.411,0.129,6.607-2.565,10.595,2.531c1.409,1.801-0.224,9.157-4.129,14.952"/>
<path fill="none" stroke="#FFFFFF" stroke-width="0.9166" stroke-linecap="round" stroke-linejoin="bevel" d="M29.611,46.925
	c0,0,0.254,1.253,3.953,0.489c1.621-0.334,0.646,0.939-0.998,1.703c-1.349,0.626-4.374,0.787-4.423-0.079
	C28.016,46.806,29.735,47.484,29.611,46.925c-0.113-0.503-0.881-0.997-1.39-2.23c-0.444-1.077-6.088-9.328,1.565-8.103
	c0.28-0.058-1.996-7.28-9.159-7.397c-7.161-0.117-6.926,8.807-6.926,8.807"/>
<path fill="none" stroke="#FFFFFF" stroke-width="0.9166" stroke-linecap="round" stroke-linejoin="round" d="M17.869,47.688
	c-0.999,1.115-0.705,1.312-2.7,1.722c-2.02,0.416-0.833,1.157-0.059,1.351c0.939,0.235,3.111,0.567,4.579-1.487
	c0.447-0.626-0.003-1.624-0.617-1.879C18.775,47.271,18.379,47.117,17.869,47.688z"/>
<path fill="none" stroke="#FFFFFF" stroke-width="0.9166" stroke-linecap="round" stroke-linejoin="round" d="M17.804,47.669
	c-0.1-0.655,0.216-1.437,0.554-2.349c0.509-1.37,1.683-2.74,0.744-7.085c-0.7-3.238-5.397-0.674-5.4-0.234
	c-0.003,0.438,0.212,2.225-0.079,4.305c-0.38,2.714,1.728,5.01,4.154,4.775"/>
<path fill="#FFFFFF" d="M16.686,37.935c-0.021,0.149,0.274,0.55,0.66,0.604c0.385,0.053,0.714-0.259,0.735-0.409
	c0.021-0.15-0.274-0.315-0.66-0.369C17.036,37.707,16.707,37.786,16.686,37.935z"/>
<path fill="none" stroke="#FFFFFF" stroke-width="0.3055" d="M16.686,37.935c-0.021,0.149,0.274,0.55,0.66,0.604
	c0.385,0.053,0.714-0.259,0.735-0.409c0.021-0.15-0.274-0.315-0.66-0.369C17.036,37.707,16.707,37.786,16.686,37.935z"/>
<path fill="#FFFFFF" d="M28.41,37.629c0.021,0.15-0.275,0.55-0.66,0.604s-0.715-0.259-0.736-0.409
	c-0.021-0.15,0.275-0.315,0.66-0.368C28.06,37.401,28.388,37.479,28.41,37.629z"/>
<path fill="none" stroke="#FFFFFF" stroke-width="0.1528" d="M28.41,37.629c0.021,0.15-0.275,0.55-0.66,0.604
	s-0.715-0.259-0.736-0.409c-0.021-0.15,0.275-0.315,0.66-0.368C28.06,37.401,28.388,37.479,28.41,37.629z"/>
<path fill="none" stroke="#FFFFFF" stroke-width="0.9166" stroke-linecap="round" stroke-linejoin="round" d="M29.787,36.591
	c0.063,1.176-0.253,1.977-0.293,3.229c-0.059,1.82,0.868,3.903-0.529,5.988"/>
<path fill="none" stroke="#FFFFFF" stroke-width="0.2206" stroke-linecap="round" stroke-linejoin="round" d="M4,31.944"/>
<path fill="#231F20" d="M53.129,37.749c-0.759-0.68-1.819-1.019-3.183-1.019l-7.926,0.044v13.314h1.597l-0.015-5.669h5.897
	c1.479,0,2.644-0.339,3.493-1.018c0.849-0.68,1.274-1.621,1.274-2.827C54.266,39.371,53.887,38.428,53.129,37.749z M49.151,43.38
	h-5.534v-5.566h5.835c2.135,0,3.203,0.943,3.203,2.827C52.655,42.467,51.487,43.38,49.151,43.38"/>
<path fill="#231F20" d="M63.753,42.382c-0.973-0.887-2.413-1.332-4.321-1.332c-1.804,0-3.196,0.454-4.179,1.36
	c-0.887,0.82-1.33,1.928-1.33,3.32c0,1.384,0.457,2.5,1.373,3.35c0.506,0.457,1.095,0.789,1.767,0.994s1.462,0.308,2.369,0.308
	c1.898,0,3.344-0.438,4.336-1.317c0.888-0.801,1.332-1.912,1.332-3.334C65.099,44.3,64.65,43.184,63.753,42.382z M63.464,47.295
	c-0.162,0.448-0.416,0.826-0.757,1.131c-0.715,0.699-1.807,1.047-3.275,1.047c-1.326,0-2.343-0.338-3.053-1.018
	c-0.71-0.678-1.066-1.586-1.066-2.725c0-0.592,0.093-1.118,0.28-1.576c0.186-0.459,0.455-0.846,0.808-1.163
	c0.733-0.669,1.744-1.003,3.031-1.003c2.85,0,4.275,1.248,4.275,3.742C63.707,46.324,63.626,46.845,63.464,47.295"/>
<path fill="#231F20" d="M75.833,47.68c0,1.792-1.605,2.688-4.817,2.688c-0.981,0-1.809-0.062-2.48-0.188
	c-0.672-0.125-1.217-0.33-1.637-0.619c-0.324-0.219-0.581-0.506-0.772-0.857c-0.191-0.354-0.314-0.797-0.372-1.331l1.494-0.015
	c0,0.707,0.262,1.226,0.785,1.56c0.562,0.399,1.555,0.601,2.982,0.601c2.244,0,3.367-0.562,3.367-1.688
	c0-0.658-0.375-1.109-1.129-1.358c-0.152-0.048-1.06-0.175-2.723-0.38c-1.664-0.204-2.699-0.388-3.109-0.549
	c-0.886-0.354-1.329-0.986-1.329-1.903c0-0.896,0.395-1.563,1.188-2.002c0.391-0.181,0.88-0.322,1.466-0.421
	c0.587-0.1,1.267-0.151,2.041-0.151c3.09,0,4.636,0.97,4.636,2.909h-1.421c0-1.363-1.086-2.045-3.259-2.045
	c-1.105,0-1.931,0.138-2.474,0.415c-0.543,0.277-0.814,0.701-0.814,1.273c0,0.533,0.367,0.919,1.1,1.158
	c0.43,0.124,1.416,0.267,2.96,0.429c1.382,0.124,2.331,0.3,2.845,0.529C75.343,46.115,75.833,46.764,75.833,47.68z"/>
<path fill="#231F20" d="M81.703,50.106c-0.229,0.038-0.432,0.067-0.608,0.086s-0.304,0.028-0.379,0.028
	c-0.974,0-1.675-0.141-2.104-0.422c-0.431-0.282-0.646-0.777-0.646-1.484v-6.077h-1.771v-0.894h1.759l0.013-2.871h1.363v2.871H81.7
	v0.908l-2.372-0.014v5.913c0,0.439,0.116,0.744,0.35,0.911c0.234,0.168,0.651,0.251,1.253,0.251c0.085,0.01,0.181,0.006,0.285-0.01
	c0.106-0.016,0.263-0.051,0.472-0.107L81.703,50.106z"/>
<path fill="#231F20" d="M93.544,41.35h-1.363l-0.014,1.501c-0.601-0.609-1.03-0.995-1.287-1.157c-0.763-0.419-1.75-0.629-2.96-0.629
	c-1.772,0-3.128,0.405-4.061,1.215c-0.888,0.743-1.33,1.82-1.33,3.23c0,0.695,0.111,1.316,0.336,1.865
	c0.226,0.548,0.553,1.012,0.98,1.394c0.936,0.78,2.259,1.172,3.969,1.172c2.052,0,3.508-0.562,4.366-1.685v1.555
	c0,0.992-0.312,1.76-0.936,2.303c-0.626,0.543-1.651,0.815-3.082,0.815c-1.345,0-2.303-0.185-2.874-0.556
	c-0.43-0.284-0.724-0.778-0.888-1.48H83c0.152,0.981,0.568,1.69,1.245,2.129c0.781,0.504,2.104,0.757,3.963,0.757
	c3.557,0,5.336-1.323,5.336-3.968V41.35z M91.124,48.092c-0.372,0.305-0.796,0.539-1.272,0.699
	c-0.478,0.162-1.023,0.244-1.644,0.244c-2.85,0-4.273-1.178-4.273-3.53c0-1.096,0.364-1.953,1.093-2.572
	c0.73-0.62,1.757-0.929,3.08-0.929c1.335,0,2.347,0.312,3.038,0.935c0.69,0.625,1.035,1.461,1.035,2.508
	C92.181,46.59,91.83,47.472,91.124,48.092"/>
<path fill="#231F20" d="M100.912,42.235c-0.408-0.066-0.79-0.1-1.142-0.1c-2.24,0-3.359,1.227-3.359,3.683v4.271h-1.347
	l-0.017-8.737l1.363,0.013v1.56h0.07c0.229-0.615,0.592-1.081,1.088-1.397c0.542-0.307,1.353-0.46,2.429-0.46
	c0.221,0,0.401,0,0.55,0c0.149,0,0.27,0,0.364,0V42.235z"/>
<path fill="#231F20" d="M110.59,42.472c-0.479-0.478-1.07-0.832-1.774-1.062c-0.707-0.229-1.531-0.344-2.476-0.344
	c-1.766,0-3.134,0.41-4.106,1.231c-0.974,0.82-1.461,1.936-1.461,3.349c0,1.411,0.469,2.532,1.403,3.362
	c1.01,0.915,2.437,1.373,4.276,1.373c0.733,0,1.413-0.083,2.037-0.249c0.625-0.166,1.171-0.401,1.638-0.705
	c0.819-0.59,1.339-1.316,1.561-2.18h-1.474c-0.505,1.494-1.763,2.24-3.774,2.24c-1.421,0-2.511-0.365-3.274-1.096
	c-0.656-0.627-0.985-1.438-0.985-2.434h9.711C111.891,44.476,111.457,43.314,110.59,42.472z M102.18,45.168
	c0.171-0.994,0.557-1.763,1.158-2.307c0.391-0.315,0.833-0.552,1.328-0.709c0.496-0.157,1.054-0.236,1.674-0.236
	c1.21,0,2.197,0.332,2.965,0.995c0.767,0.664,1.15,1.417,1.15,2.257H102.18"/>
<path fill="#336791" d="M126.282,46.52c0,2.595-2.092,3.892-6.277,3.892c-2.507,0-4.337-0.446-5.49-1.341
	c-0.944-0.734-1.415-1.855-1.415-3.361h1.685c0,2.422,1.74,3.633,5.22,3.633c1.67,0,2.877-0.248,3.62-0.743
	c0.629-0.438,0.945-1.124,0.945-2.058c0-0.924-0.43-1.572-1.288-1.943c-0.486-0.2-1.674-0.453-3.562-0.758
	c-2.375-0.361-3.915-0.724-4.621-1.085c-1.02-0.533-1.53-1.439-1.53-2.715c0-1.191,0.435-2.078,1.303-2.659
	c0.934-0.638,2.537-0.958,4.806-0.958c4.103,0,6.152,1.362,6.152,4.086h-1.699c0-2.041-1.522-3.061-4.566-3.061
	c-1.529,0-2.645,0.206-3.351,0.616c-0.67,0.438-1.004,1.083-1.004,1.931c0,0.887,0.43,1.512,1.288,1.874
	c0.457,0.211,1.802,0.501,4.034,0.874c2.1,0.315,3.516,0.682,4.249,1.102C125.781,44.358,126.282,45.251,126.282,46.52z"/>
<path fill="#336791" d="M140.861,48.727c0.879-0.619,1.526-1.369,1.947-2.25c0.42-0.882,0.631-1.898,0.631-3.052
	c0-2.067-0.688-3.726-2.062-4.973c-0.733-0.687-1.621-1.196-2.661-1.529c-1.038-0.333-2.228-0.5-3.562-0.5
	c-2.594,0-4.63,0.629-6.109,1.886c-1.479,1.258-2.217,2.963-2.217,5.116c0,2.095,0.746,3.786,2.238,5.072
	c1.491,1.286,3.53,1.929,6.114,1.929c1.011,0,1.894-0.068,2.646-0.205c0.754-0.137,1.393-0.347,1.918-0.63l2.488,1.725l1.039-0.954
	L140.861,48.727z M139.965,47.844c-0.629,0.504-1.34,0.883-2.133,1.135c-0.792,0.252-1.679,0.378-2.662,0.378
	c-2.006,0-3.625-0.54-4.862-1.62c-1.235-1.08-1.854-2.52-1.854-4.319c0-1.875,0.613-3.337,1.839-4.384
	c1.228-1.047,2.854-1.571,4.877-1.571c2.051,0,3.665,0.547,4.839,1.642c0.619,0.534,1.079,1.158,1.375,1.871
	c0.295,0.714,0.443,1.528,0.443,2.442C141.827,45.282,141.208,46.758,139.965,47.844"/>
<polygon fill="#336791" points="156.055,50.089 144.543,50.089 144.543,36.759 146.127,36.73 146.127,48.976 156.069,48.976 "/>
</svg>
