<?xml version="1.0" encoding="utf-8"?>
<!-- Generator: Adobe Illustrator 16.0.3, SVG Export Plug-In . SVG Version: 6.00 Build 0)  -->
<!DOCTYPE svg PUBLIC "-//W3C//DTD SVG 1.1//EN" "http://www.w3.org/Graphics/SVG/1.1/DTD/svg11.dtd">
<svg version="1.1" id="Layer_1" xmlns="http://www.w3.org/2000/svg" xmlns:xlink="http://www.w3.org/1999/xlink" x="0px" y="0px"
	 width="300px" height="300px" viewBox="0 0 300 300" enable-background="new 0 0 300 300" xml:space="preserve">
<g>
	<g>
		<path fill="#161616" d="M165.229,160.882l-6.978-12.081L47.8,212.592l6.977,12.081l12.083-6.974
			c-5.177-8.971-8.98-18.32-11.497-27.839c-2.516-9.519-3.742-19.208-3.742-28.84c-0.002-19.622,5.098-39.007,14.744-56.086
			c4.822-8.54,10.778-16.504,17.803-23.651c7.026-7.147,15.12-13.478,24.25-18.757l-0.022,0.012
			c4.625-2.663,9.166-4.928,13.698-6.838c6.799-2.862,13.575-4.931,20.654-6.308c7.079-1.374,14.472-2.056,22.481-2.057V33.385
			h-13.951v127.497H165.229l-6.978-12.081L165.229,160.882h13.951V19.434h-13.951c-6.399,0-12.635,0.366-18.74,1.127
			c-9.158,1.141-18.021,3.18-26.66,6.15c-8.642,2.969-17.048,6.861-25.356,11.646l-0.009,0.005l-0.013,0.007
			C83.133,44.914,73.033,52.807,64.27,61.723c-13.148,13.375-23.288,29.044-30.137,45.938
			c-6.849,16.895-10.414,35.022-10.414,53.359c0,12.001,1.529,24.093,4.668,35.97c3.139,11.876,7.889,23.537,14.307,34.657
			l6.977,12.086l129.51-74.798v-8.053H165.229z"/>
		<path fill="#161616" d="M165.229,160.333l-6.979,12.079l91.996,53.157l6.98-12.079l-12.081-6.977
			c-4.288,7.424-9.428,14-15.23,19.708c-8.702,8.56-18.905,15.168-29.937,19.642c-11.029,4.473-22.881,6.802-34.835,6.801
			c-7.833,0-15.709-0.998-23.446-3.044c-7.737-2.047-15.337-5.141-22.633-9.356l-0.009-0.005c-3.77-2.174-7.213-4.446-10.396-6.853
			c-4.774-3.611-8.966-7.518-12.801-11.922c-3.832-4.405-7.311-9.318-10.57-14.966l-12.083,6.973l6.978,12.08l92.023-53.157
			L165.229,160.333l-6.979,12.079L165.229,160.333l-6.979-12.08L54.151,208.385l6.971,12.078c2.705,4.688,5.618,9.113,8.772,13.279
			c4.73,6.25,10.011,11.915,15.878,17.009c5.866,5.097,12.309,9.621,19.341,13.676l-0.008-0.005
			c9.446,5.459,19.358,9.501,29.455,12.171c10.098,2.671,20.379,3.973,30.582,3.973c20.767-0.002,41.214-5.381,59.287-15.587
			c9.036-5.104,17.478-11.417,25.05-18.865c7.573-7.448,14.275-16.032,19.827-25.646l6.975-12.078l-111.052-64.167l-6.979,4.032
			L165.229,160.333z"/>
		<path fill="#161616" d="M165.259,160.093h13.95V75.067h-13.95v13.951c9.849,0.002,19.158,1.988,27.649,5.577
			c12.73,5.382,23.604,14.41,31.267,25.759c3.831,5.674,6.859,11.922,8.932,18.589c2.072,6.668,3.191,13.754,3.192,21.149
			c0,3.377-0.19,6.556-0.569,9.601c-0.569,4.568-1.553,8.837-3.008,13.075c-1.458,4.236-3.395,8.45-5.936,12.844l12.076,6.986
			l6.977-12.081l-73.604-42.506L165.259,160.093h13.95H165.259l-6.978,12.081l85.677,49.479l6.98-12.067
			c2.229-3.855,4.189-7.756,5.867-11.73c2.517-5.958,4.389-12.081,5.606-18.373c1.221-6.293,1.789-12.745,1.788-19.389
			c0.002-13.63-2.768-26.685-7.779-38.535c-7.519-17.781-20.046-32.866-35.83-43.534c-7.893-5.334-16.606-9.563-25.913-12.458
			c-9.305-2.895-19.203-4.452-29.419-4.451h-13.951v107.03l6.974,4.027L165.259,160.093z"/>
	</g>
	<g>
		<path fill="#AAAAAA" d="M165.773,160.886L55.33,224.673c-35.226-61.014-14.321-138.968,46.648-174.22
			c20.329-11.706,40.327-17.068,63.795-17.068V160.886z"/>
		<path fill="#161616" d="M165.773,160.886l-2.094-3.624L53.237,221.049l2.093,3.624l3.625-2.092
			c-11.226-19.446-16.551-40.638-16.553-61.565c-0.001-21.309,5.531-42.335,16.006-60.882
			c10.476-18.548,25.878-34.615,45.665-46.057l-0.006,0.003c9.891-5.694,19.618-9.804,29.714-12.507
			c10.097-2.702,20.575-4.001,31.992-4.002v-4.186h-4.186v127.501H165.773l-2.094-3.624L165.773,160.886h4.185V29.2h-4.185
			c-12.052-0.001-23.306,1.381-34.157,4.287c-10.852,2.904-21.289,7.328-31.727,13.339l-0.003,0.002l-0.003,0.002
			C78.778,59.031,62.301,76.212,51.119,96.017c-11.185,19.807-17.087,42.24-17.087,64.998c-0.002,22.346,5.698,45.012,17.673,65.75
			l2.094,3.625l116.159-67.088v-2.416H165.773z"/>
		<path fill="#666666" d="M165.773,160.337l91.996,53.153c-29.349,50.824-94.32,68.214-145.141,38.853
			c-16.906-9.757-28.874-21.523-38.626-38.431L165.773,160.337z"/>
		<path fill="#161616" d="M165.773,160.337l-2.094,3.624l91.996,53.154l2.094-3.624l-3.624-2.093
			c-9.461,16.38-22.746,29.123-38.089,37.791c-15.342,8.667-32.738,13.243-50.367,13.242c-17.326-0.001-34.869-4.413-50.967-13.711
			l-0.002-0.001c-8.193-4.73-15.098-9.886-21.14-15.88c-6.041-5.996-11.234-12.84-15.953-21.017l-3.625,2.091l2.11,3.614
			l91.77-53.576L165.773,160.337l-2.094,3.624L165.773,160.337l-2.11-3.614l-95.366,55.675l2.081,3.606
			c5.034,8.73,10.7,16.223,17.308,22.776c6.605,6.556,14.139,12.161,22.852,17.188l-0.002-0.001
			c17.391,10.049,36.409,14.836,55.154,14.834c19.077,0,37.882-4.947,54.483-14.324c16.601-9.375,31.002-23.195,41.221-40.894
			l2.093-3.624l-97.724-56.463l-2.1,1.226L165.773,160.337z"/>
		<path fill="#EEEEEE" d="M165.816,160.098V75.072c46.94,0,84.979,38.051,84.979,85.026c0,15.611-3.54,28.939-11.388,42.502
			L165.816,160.098z"/>
		<path fill="#161616" d="M165.816,160.098h4.186V75.072h-4.186v4.185c11.169,0,21.786,2.261,31.45,6.349
			c14.494,6.131,26.837,16.384,35.549,29.288c8.711,12.907,13.792,28.439,13.794,45.204c-0.001,7.491-0.846,14.339-2.608,20.938
			c-1.766,6.599-4.454,12.962-8.216,19.468l3.622,2.096l2.094-3.625l-73.591-42.502L165.816,160.098h4.186H165.816l-2.093,3.624
			l77.212,44.594l2.095-3.62c4.085-7.058,7.091-14.139,9.057-21.498c1.969-7.358,2.895-14.979,2.893-23.1
			c0.001-12.31-2.494-24.056-7.006-34.732c-6.771-16.016-18.069-29.627-32.298-39.244c-14.226-9.617-31.404-15.236-49.859-15.234
			h-4.185v91.627l2.092,1.208L165.816,160.098z"/>
	</g>
</g>
</svg>
