<?xml version="1.0" encoding="UTF-8" standalone="no"?>
<svg xmlns:rdf="http://www.w3.org/1999/02/22-rdf-syntax-ns#" xmlns="http://www.w3.org/2000/svg" height="90" width="160" version="1.1" xmlns:cc="http://creativecommons.org/ns#" xmlns:dc="http://purl.org/dc/elements/1.1/">
 <g transform="matrix(1.5138 0 0 1.5138 7.4541 -17.241)">
  <path fill="#000" d="m33.195 45.743 0.03906 0.11719c0.05206 3.2422-0.86591 5.7031-2.7539 7.3828-1.875 1.6667-4.5378 2.5-7.9883 2.5-3.5156-0.000001-6.3412-1.0742-8.4766-3.2227-2.1224-2.1484-3.1836-4.9609-3.1836-8.4375v-5.9375c-0.000001-3.4635 1.0221-6.2695 3.0664-8.418 2.0573-2.1614 4.7721-3.2422 8.1445-3.2422 3.6068 0.000029 6.3932 0.83987 8.3594 2.5195 1.9791 1.6797 2.9427 4.1211 2.8906 7.3242l-0.05859 0.11719h-6.4258c-0.000018-1.7448-0.37111-2.9948-1.1133-3.75-0.7422-0.75518-1.9596-1.1328-3.6523-1.1328-1.4844 0.000024-2.6237 0.59898-3.418 1.7969-0.79428 1.1849-1.1914 2.7669-1.1914 4.7461v5.9766c-0.000009 1.9922 0.43619 3.5872 1.3086 4.7852 0.87239 1.1979 2.1224 1.7969 3.75 1.7969 1.5104 0.000004 2.5976-0.3776 3.2617-1.1328 0.67707-0.7552 1.0156-2.0182 1.0156-3.7891h6.4258"/>
  <path fill="#000" d="m51.574 47.794c-0.000017-1.0156-0.33205-1.7904-0.99609-2.3242-0.66408-0.54686-1.8685-1.1263-3.6133-1.7383-3.5287-1.1458-6.1524-2.3633-7.8711-3.6523-1.7057-1.3021-2.5586-3.1706-2.5586-5.6055-0.000002-2.3828 0.99609-4.3099 2.9883-5.7812s4.5247-2.207 7.5977-2.207c3.2422 0.000029 5.8528 0.76175 7.832 2.2852 1.9791 1.5104 2.9362 3.6459 2.8711 6.4062l-0.03906 0.11719h-6.4062c-0.000016-1.3411-0.3646-2.3112-1.0938-2.9102-0.72918-0.61196-1.8294-0.91794-3.3008-0.91797-1.1979 0.000024-2.1419 0.29299-2.832 0.87891-0.69011 0.58596-1.0352 1.3086-1.0352 2.168-0.000008 0.83335 0.35155 1.5039 1.0547 2.0117 0.71614 0.49481 2.0443 1.1198 3.9844 1.875 3.2943 0.97658 5.7877 2.168 7.4805 3.5742 1.6927 1.4063 2.539 3.3333 2.5391 5.7812-0.000023 2.5-0.97658 4.4596-2.9297 5.8789-1.9531 1.4062-4.5443 2.1094-7.7734 2.1094-3.2162-0.000001-5.944-0.75521-8.1836-2.2656-2.2266-1.5234-3.3073-3.9128-3.2422-7.168l0.03906-0.11719h6.4258c-0.000008 1.6537 0.40364 2.832 1.2109 3.5352 0.8203 0.69011 2.0703 1.0352 3.75 1.0352 1.3802 0.000004 2.4088-0.27343 3.0859-0.82031 0.67707-0.54687 1.0156-1.263 1.0156-2.1484"/>
  <path fill="#000" d="m71.945 47.618 0.19531 1.0352h0.11719l0.19531-0.95703 5.6445-20.801h6.9141l-9.2188 28.438h-7.1289l-9.1797-28.438h6.8945l5.5664 20.723"/>
 </g>
</svg>
