<?xml version="1.0" encoding="utf-8"?>
<!-- Generator: Adobe Illustrator 16.0.3, SVG Export Plug-In . SVG Version: 6.00 Build 0)  -->
<!DOCTYPE svg PUBLIC "-//W3C//DTD SVG 1.1//EN" "http://www.w3.org/Graphics/SVG/1.1/DTD/svg11.dtd">
<svg version="1.1" id="Layer_1" xmlns="http://www.w3.org/2000/svg" xmlns:xlink="http://www.w3.org/1999/xlink" x="0px" y="0px"
	 width="25.312px" height="18.461px" viewBox="0 0 25.312 18.461" enable-background="new 0 0 25.312 18.461" xml:space="preserve">
<path fill="#FFFFFF" d="M17.549,1.789c1.939,0,3.51,1.571,3.51,3.511v4.683c0,1.939-1.57,3.511-3.51,3.511h-6.641v3.144
	c0,0.473-6.655-4.014-6.655-4.314c0-0.299,6.655-4.787,6.655-4.314v3.145h6.641c0.646,0,1.17-0.523,1.17-1.171V5.3
	c0-0.646-0.523-1.17-1.17-1.17h-5.47c-0.647,0-1.171-0.524-1.171-1.171c0-0.646,0.523-1.17,1.171-1.17H17.549z"/>
</svg>
