<?xml version="1.0" encoding="utf-8"?>
<!-- Generator: Adobe Illustrator 16.0.3, SVG Export Plug-In . SVG Version: 6.00 Build 0)  -->
<!DOCTYPE svg PUBLIC "-//W3C//DTD SVG 1.1//EN" "http://www.w3.org/Graphics/SVG/1.1/DTD/svg11.dtd">
<svg version="1.1" id="Layer_1" xmlns="http://www.w3.org/2000/svg" xmlns:xlink="http://www.w3.org/1999/xlink" x="0px" y="0px"
	 width="20px" height="20px" viewBox="0 0 20 20" enable-background="new 0 0 20 20" xml:space="preserve">
<path fill="#62A88E" d="M10,2.75c-4.004,0-7.25,3.247-7.25,7.25s3.246,7.25,7.25,7.25c4.005,0,7.25-3.247,7.25-7.25
	S14.005,2.75,10,2.75z M10,15.436c-3.002,0-5.438-2.434-5.438-5.436S6.998,4.564,10,4.564c3.003,0,5.439,2.434,5.439,5.436
	S13.003,15.436,10,15.436z M12.719,9.093h-1.812v-1.81c0-0.503-0.406-0.909-0.907-0.909c-0.5,0-0.906,0.406-0.906,0.909V10
	c0,0.501,0.406,0.907,0.906,0.907h2.719c0.502,0,0.906-0.406,0.906-0.907S13.221,9.093,12.719,9.093z"/>
</svg>
