<?xml version="1.0" encoding="utf-8"?>
<!-- Generator: Adobe Illustrator 16.0.3, SVG Export Plug-In . SVG Version: 6.00 Build 0)  -->
<!DOCTYPE svg PUBLIC "-//W3C//DTD SVG 1.1//EN" "http://www.w3.org/Graphics/SVG/1.1/DTD/svg11.dtd">
<svg version="1.1" id="Layer_1" xmlns="http://www.w3.org/2000/svg" xmlns:xlink="http://www.w3.org/1999/xlink" x="0px" y="0px"
	 width="25.312px" height="18.461px" viewBox="0 0 25.312 18.461" enable-background="new 0 0 25.312 18.461" xml:space="preserve">
<g>
	<path fill="#FFFFFF" d="M6.932,8.325c0.25-0.403,0.562-0.802,0.938-1.198c0.376-0.394,0.831-0.75,1.361-1.066
		c0.531-0.318,1.042-0.582,1.749-0.792c0.705-0.21,1.515-0.336,2.428-0.378V1.385l6.949,5.409l-6.949,5.33V8.253
		c-0.231,0-0.536,0.007-0.915,0.022c-0.38,0.015-0.802,0.056-1.268,0.125c-0.466,0.067-0.849,0.17-1.362,0.306
		C9.351,8.844,8.847,9.033,8.352,9.276C7.856,9.52,7.39,9.788,6.955,10.154c-0.437,0.364-0.811,0.812-1.125,1.338
		C5.978,10.306,6.345,9.274,6.932,8.325z"/>
	<path fill="#FFFFFF" d="M15.936,12.664v1.355H3.935V5.807h2.249C6.248,5.575,6.338,5.357,6.5,5.188
		c0.215-0.226,0.452-0.439,0.704-0.644H2.671v10.738h14.528v-3.506L15.936,12.664z"/>
</g>
</svg>
