<?xml version="1.0" encoding="utf-8"?>
<!-- Generator: Adobe Illustrator 16.0.3, SVG Export Plug-In . SVG Version: 6.00 Build 0)  -->
<!DOCTYPE svg PUBLIC "-//W3C//DTD SVG 1.1//EN" "http://www.w3.org/Graphics/SVG/1.1/DTD/svg11.dtd">
<svg version="1.1" id="Layer_1" xmlns="http://www.w3.org/2000/svg" xmlns:xlink="http://www.w3.org/1999/xlink" x="0px" y="0px"
	 width="22.26px" height="21.619px" viewBox="0 0 22.26 21.619" enable-background="new 0 0 22.26 21.619" xml:space="preserve">
<g>
	<g>
		<defs>
			<rect id="SVGID_1_" x="1.78" y="1.119" width="20.292" height="20.293"/>
		</defs>
		<clipPath id="SVGID_2_">
			<use xlink:href="#SVGID_1_"  overflow="visible"/>
		</clipPath>
		<g clip-path="url(#SVGID_2_)">
			<defs>
				<rect id="SVGID_3_" x="1.78" y="1.119" width="20.292" height="20.293"/>
			</defs>
			<clipPath id="SVGID_4_">
				<use xlink:href="#SVGID_3_"  overflow="visible"/>
			</clipPath>
			<path clip-path="url(#SVGID_4_)" fill="#753332" d="M11.927,21.412c-5.603,0-10.146-4.543-10.146-10.146
				S6.324,1.119,11.927,1.119c5.604,0,10.146,4.543,10.146,10.146S17.531,21.412,11.927,21.412 M11.927,3.656
				c-4.202,0-7.61,3.407-7.61,7.609s3.408,7.609,7.61,7.609s7.61-3.407,7.61-7.609S16.129,3.656,11.927,3.656 M15.514,14.852
				c-0.496,0.495-1.297,0.495-1.793,0l-1.794-1.794l-1.794,1.794c-0.496,0.495-1.298,0.495-1.794,0
				c-0.496-0.497-0.496-1.298,0-1.794l1.794-1.793L8.339,9.471c-0.496-0.495-0.496-1.298,0-1.794s1.298-0.496,1.794,0l1.794,1.794
				l1.794-1.794c0.496-0.496,1.297-0.496,1.793,0s0.496,1.299,0,1.794l-1.793,1.794l1.793,1.793
				C16.01,13.554,16.01,14.357,15.514,14.852"/>
		</g>
	</g>
</g>
</svg>
