<?xml version="1.0" encoding="utf-8"?>
<!-- Generator: Adobe Illustrator 16.0.3, SVG Export Plug-In . SVG Version: 6.00 Build 0)  -->
<!DOCTYPE svg PUBLIC "-//W3C//DTD SVG 1.1//EN" "http://www.w3.org/Graphics/SVG/1.1/DTD/svg11.dtd">
<svg version="1.1" id="Layer_1" xmlns="http://www.w3.org/2000/svg" xmlns:xlink="http://www.w3.org/1999/xlink" x="0px" y="0px"
	 width="160px" height="90px" viewBox="0 0 160 90" enable-background="new 0 0 160 90" xml:space="preserve">
<g>
	<rect x="97.773" y="57.489" fill="#E2E3E3" width="4.674" height="4.682"/>
</g>
<g>
	<rect x="97.773" y="50.999" fill="#C7C9CA" width="4.674" height="4.678"/>
	<rect x="3.749" y="37.831" fill="#8C8C8C" width="2.572" height="17.289"/>
</g>
<polyline fill="#8C8C8C" points="9.072,37.831 12.486,37.831 23.055,52.042 23.111,52.042 23.111,37.831 25.713,37.831 
	25.713,55.12 22.406,55.12 11.729,40.907 11.674,40.907 11.674,55.12 9.072,55.12 9.072,37.831 "/>
<polyline fill="#8C8C8C" points="28.465,37.831 40.525,37.831 40.525,40.03 31.066,40.03 31.066,45.45 39.875,45.45 39.875,47.649 
	31.066,47.649 31.066,55.12 28.465,55.12 28.465,37.831 "/>
<path fill="#8C8C8C" d="M42.061,46.475c0-5.127,4.146-9.084,9.998-9.084c5.855,0,10.002,3.957,10.002,9.084
	c0,5.129-4.146,9.084-10.002,9.084C46.207,55.559,42.061,51.604,42.061,46.475 M59.297,46.475c0-3.784-2.848-6.885-7.238-6.885
	c-4.387,0-7.234,3.102-7.234,6.885c0,3.785,2.848,6.889,7.234,6.889C56.449,53.364,59.297,50.26,59.297,46.475z"/>
<path fill="#8C8C8C" d="M64.545,37.831h6.668c3.334,0,5.826,1.392,5.826,4.323c0,1.977-1.355,3.223-3.307,3.807v0.051
	c2.303,0.146,4.146,1.979,4.146,4.297c0,3.104-3.01,4.811-6.748,4.811h-6.586V37.831 M67.146,45.01h3.551
	c1.977,0,3.578-0.707,3.578-2.587c0-1.369-0.949-2.54-3.035-2.54h-4.094V45.01z M67.146,53.069h3.82c1.572,0,4.146-0.488,4.146-2.93
	c0-2.051-1.6-3.078-4.119-3.078h-3.848V53.069z"/>
<path fill="#8C8C8C" d="M80.904,37.831h6.748c4.906,0,6.152,2.662,6.152,4.835c0,2.2-1.814,4.274-4.717,4.567l5.451,7.887h-3.254
	L86.408,47.5h-2.9v7.619h-2.604V37.831 M83.507,45.45h3.412c2.064,0,4.123-0.439,4.123-2.784c0-2.346-2.059-2.783-4.123-2.783
	h-3.412V45.45z"/>
<path fill="#8C8C8C" d="M123.111,45.45v8.521c-1.867,1.027-4.934,1.588-7.264,1.588c-6.504,0-10.271-4.174-10.271-9.084
	c0-5.127,4.146-9.084,10.002-9.084c3.521,0,5.666,0.854,7.154,2.248l-1.844,1.783c-1.57-1.368-3.387-1.832-5.311-1.832
	c-4.391,0-7.236,3.102-7.236,6.885c0,3.908,3.227,6.889,7.455,6.889c1.812,0,3.545-0.318,4.713-0.904v-4.811h-4.258V45.45H123.111"
	/>
<polyline fill="#8C8C8C" points="125.673,37.831 128.275,37.831 128.275,45.01 138.22,45.01 138.22,37.831 140.822,37.831 
	140.822,55.12 138.22,55.12 138.22,47.209 128.275,47.209 128.275,55.12 125.673,55.12 125.673,37.831 "/>
<polyline fill="#8C8C8C" points="149.054,40.03 142.873,40.03 142.873,37.831 157.832,37.831 157.832,40.03 151.656,40.03 
	151.656,55.12 149.054,55.12 149.054,40.03 "/>
<rect x="97.773" y="44.012" fill="#8C8C8C" width="4.674" height="4.682"/>
<rect x="97.773" y="37.518" fill="#8C8C8C" width="4.674" height="4.682"/>
<rect x="97.773" y="31.023" fill="#8C8C8C" width="4.674" height="4.68"/>
<g>
	<g>
		<rect x="97.937" y="57.535" fill="#E2E3E3" width="4.677" height="4.685"/>
	</g>
	<g>
		<rect x="97.937" y="51.041" fill="#C7C9CA" width="4.677" height="4.682"/>
		<rect x="3.851" y="37.865" fill="#0269B1" width="2.573" height="17.3"/>
	</g>
	<g>
		<polyline fill="#0269B1" points="9.177,37.865 12.594,37.865 23.17,52.085 23.225,52.085 23.225,37.865 25.829,37.865 
			25.829,55.165 22.52,55.165 11.836,40.943 11.782,40.943 11.782,55.165 9.177,55.165 9.177,37.865 		"/>
		<polyline fill="#0269B1" points="28.583,37.865 40.65,37.865 40.65,40.065 31.186,40.065 31.186,45.489 40,45.489 40,47.688 
			31.186,47.688 31.186,55.165 28.583,55.165 28.583,37.865 		"/>
		<path fill="#0269B1" d="M42.188,46.515c0-5.132,4.149-9.092,10.005-9.092c5.859,0,10.009,3.96,10.009,9.092
			s-4.149,9.089-10.009,9.089C46.337,55.604,42.188,51.647,42.188,46.515 M59.436,46.515c0-3.788-2.849-6.891-7.243-6.891
			c-4.391,0-7.239,3.103-7.239,6.891c0,3.787,2.848,6.892,7.239,6.892C56.587,53.407,59.436,50.302,59.436,46.515z"/>
		<path fill="#919396" d="M64.687,37.865h6.672c3.336,0,5.83,1.392,5.83,4.325c0,1.979-1.355,3.227-3.308,3.811v0.051
			c2.305,0.146,4.15,1.979,4.15,4.299c0,3.106-3.013,4.814-6.754,4.814h-6.59V37.865 M67.29,45.047h3.554
			c1.979,0,3.579-0.707,3.579-2.589c0-1.369-0.949-2.541-3.037-2.541H67.29V45.047z M67.29,53.114h3.824
			c1.572,0,4.148-0.489,4.148-2.933c0-2.054-1.6-3.08-4.122-3.08H67.29V53.114z"/>
		<path fill="#919396" d="M81.056,37.865h6.754c4.908,0,6.156,2.664,6.156,4.837c0,2.201-1.815,4.277-4.719,4.571l5.453,7.892
			h-3.257l-4.881-7.624h-2.901v7.624h-2.605V37.865 M83.662,45.489h3.416c2.064,0,4.124-0.441,4.124-2.787s-2.06-2.784-4.124-2.784
			h-3.416V45.489z"/>
		<path fill="#919396" d="M123.292,45.489v8.527c-1.869,1.026-4.937,1.588-7.268,1.588c-6.508,0-10.278-4.176-10.278-9.089
			c0-5.132,4.149-9.092,10.007-9.092c3.525,0,5.67,0.856,7.16,2.251l-1.846,1.784c-1.571-1.369-3.389-1.833-5.314-1.833
			c-4.392,0-7.24,3.103-7.24,6.891c0,3.91,3.229,6.892,7.46,6.892c1.813,0,3.547-0.317,4.716-0.904v-4.814h-4.26v-2.199H123.292"/>
		<polyline fill="#919396" points="125.855,37.865 128.458,37.865 128.458,45.047 138.411,45.047 138.411,37.865 141.014,37.865 
			141.014,55.165 138.411,55.165 138.411,47.249 128.458,47.249 128.458,55.165 125.855,55.165 125.855,37.865 		"/>
		<polyline fill="#919396" points="149.251,40.065 143.067,40.065 143.067,37.865 158.035,37.865 158.035,40.065 151.856,40.065 
			151.856,55.165 149.251,55.165 149.251,40.065 		"/>
		<rect x="97.937" y="44.049" fill="#ABADB0" width="4.677" height="4.686"/>
		<rect x="97.937" y="37.55" fill="#919396" width="4.677" height="4.686"/>
		<rect x="97.937" y="31.052" fill="#0269B1" width="4.677" height="4.683"/>
	</g>
</g>
</svg>
